<svg width="552" height="395" viewBox="0 0 552 395" fill="none" xmlns="http://www.w3.org/2000/svg">
<path opacity="0.5" d="M277 0C126.784 0 5.00027 121.538 5.00027 271.481C4.94036 314.049 14.9567 356.028 34.2335 394H519.788C539.057 356.026 549.066 314.047 549 271.481C549 121.538 427.216 0 277 0Z" fill="url(#paint0_linear_3120_1671)" fill-opacity="0.16"/>
<path d="M39.0187 263.4C39.0166 264.232 38.7679 265.045 38.3041 265.736C37.8402 266.427 37.1821 266.965 36.4127 267.282C35.6433 267.599 34.7972 267.68 33.9814 267.517C33.1655 267.353 32.4164 266.951 31.8288 266.362C31.2411 265.773 30.8413 265.023 30.6797 264.207C30.5182 263.391 30.6021 262.545 30.9211 261.776C31.24 261.007 31.7795 260.351 32.4716 259.889C33.1636 259.427 33.977 259.18 34.8091 259.18C35.3629 259.18 35.9111 259.289 36.4225 259.501C36.934 259.714 37.3985 260.025 37.7895 260.417C38.1806 260.809 38.4904 261.274 38.7013 261.786C38.9123 262.298 39.0201 262.846 39.0187 263.4Z" fill="white"/>
<path d="M152.313 319.631C152.313 320.463 152.066 321.277 151.604 321.969C151.141 322.662 150.484 323.201 149.715 323.52C148.945 323.838 148.099 323.922 147.282 323.759C146.466 323.597 145.716 323.196 145.127 322.607C144.538 322.019 144.137 321.269 143.975 320.452C143.813 319.635 143.896 318.789 144.214 318.02C144.533 317.251 145.073 316.593 145.765 316.131C146.457 315.668 147.271 315.421 148.104 315.421C148.657 315.42 149.205 315.528 149.716 315.739C150.228 315.95 150.692 316.26 151.083 316.651C151.474 317.042 151.785 317.507 151.996 318.018C152.207 318.529 152.315 319.078 152.313 319.631Z" fill="white"/>
<path d="M33.0139 337.259C33.1386 332.705 32.6462 328.155 31.5502 323.733C30.7489 320.417 30.5141 316.989 30.8557 313.594C31.0595 311.58 31.0595 309.55 30.8557 307.536C30.1185 299.886 21.849 282.664 7.54297 280.217C7.54297 280.217 10.0324 289.149 12.2653 295.987C15.15 304.801 18.2591 310.282 23.1418 315.101C28.1553 319.878 31.2036 326.356 31.6891 333.264C31.7532 334.556 31.7745 335.881 31.6891 337.227L33.0139 337.259Z" fill="url(#paint1_linear_3120_1671)" fill-opacity="0.16"/>
<path d="M36.3906 323.723C36.1936 320.417 36.5548 317.101 37.459 313.915C39.1144 308.367 39.3931 302.5 38.271 296.82C35.3435 282.877 19.0396 269.105 19.0396 269.105C19.0396 269.105 21.7213 289.512 24.7556 298.401C26.5435 303.271 28.7379 307.981 31.3156 312.483C33.6431 316.625 34.9505 321.262 35.1298 326.009C35.451 333.48 35.1795 340.964 34.3179 348.392L35.6213 348.585C36.5975 340.335 36.8549 332.017 36.3906 323.723Z" fill="#0066B2"/>
<path d="M59.8953 257.919C59.8953 257.919 44.9375 267.77 41.0057 283.465C39.9875 287.481 39.9399 291.681 40.8669 295.72C41.8938 300.376 41.9556 305.194 41.0485 309.876C38.7339 322.825 38.1233 336.022 39.2322 349.129L40.5463 348.98C39.5236 336.94 39.9685 324.821 41.8712 312.889C42.78 307.149 45.2197 301.76 48.9334 297.29C52.2631 293.135 54.851 288.436 56.5832 283.401C60.9851 271.306 59.8953 257.919 59.8953 257.919Z" fill="url(#paint2_linear_3120_1671)" fill-opacity="0.16"/>
<path d="M42.9077 305.859C41.4898 310.773 41.3756 315.973 42.5765 320.945C43.3316 323.876 43.4663 326.933 42.9718 329.919C41.459 339.41 40.8295 349.021 41.0914 358.628L42.4162 358.564C42.171 349.602 42.7037 340.637 44.0082 331.768C44.5855 327.993 46.1938 324.451 48.6558 321.532C51.4673 318.136 53.8036 314.373 55.6005 310.346C61.0387 298.081 62.9939 282.567 62.9939 282.567C62.9939 282.567 46.6365 292.108 42.9077 305.859Z" fill="#0066B2"/>
<g filter="url(#filter0_b_3120_1671)">
<path d="M56.9892 330.849H19.5947C19.5947 330.849 20.7379 386.588 32.2981 393.426H44.2537C55.846 386.545 56.9892 330.849 56.9892 330.849Z" fill="url(#paint3_linear_3120_1671)" fill-opacity="0.32"/>
</g>
<path d="M494.632 220.632H505.241C506.011 220.63 506.773 220.781 507.485 221.074C508.197 221.368 508.843 221.799 509.388 222.343C509.933 222.887 510.365 223.532 510.66 224.243C510.955 224.955 511.107 225.717 511.107 226.487V393.885" stroke="white" stroke-miterlimit="10"/>
<path d="M494.632 258.806H505.241C506.797 258.806 508.289 259.424 509.389 260.524C510.489 261.624 511.107 263.116 511.107 264.671V393.885" stroke="white" stroke-miterlimit="10"/>
<path d="M494.632 296.991H505.241C506.011 296.99 506.773 297.14 507.485 297.434C508.197 297.727 508.843 298.158 509.388 298.702C509.933 299.246 510.365 299.892 510.66 300.603C510.955 301.314 511.107 302.076 511.107 302.846V393.885" stroke="white" stroke-miterlimit="10"/>
<path d="M494.632 335.123H505.241C506.797 335.123 508.289 335.741 509.389 336.841C510.489 337.941 511.107 339.432 511.107 340.988V393.885" stroke="white" stroke-miterlimit="10"/>
<path d="M494.632 373.35H505.241C506.795 373.35 508.285 373.967 509.385 375.065C510.485 376.162 511.104 377.652 511.107 379.205V393.885" stroke="white" stroke-miterlimit="10"/>
<path d="M258.289 267.973V393.778" stroke="white" stroke-miterlimit="10"/>
<path d="M481.042 355.422H328.814C323.598 355.422 319.37 359.651 319.37 364.867V379.878C319.37 385.095 323.598 389.323 328.814 389.323H481.042C486.258 389.323 490.487 385.095 490.487 379.878V364.867C490.487 359.651 486.258 355.422 481.042 355.422Z" fill="url(#paint4_linear_3120_1671)"/>
<path d="M339.926 362.955H329.114C328.353 362.955 327.736 363.572 327.736 364.333V380.402C327.736 381.163 328.353 381.78 329.114 381.78H339.926C340.688 381.78 341.305 381.163 341.305 380.402V364.333C341.305 363.572 340.688 362.955 339.926 362.955Z" fill="white"/>
<path d="M357.181 362.955H346.368C345.607 362.955 344.99 363.572 344.99 364.333V380.402C344.99 381.163 345.607 381.78 346.368 381.78H357.181C357.942 381.78 358.559 381.163 358.559 380.402V364.333C358.559 363.572 357.942 362.955 357.181 362.955Z" fill="white"/>
<path d="M438.081 362.955H363.613C362.851 362.955 362.234 363.572 362.234 364.333V380.402C362.234 381.163 362.851 381.78 363.613 381.78H438.081C438.842 381.78 439.459 381.163 439.459 380.402V364.333C439.459 363.572 438.842 362.955 438.081 362.955Z" fill="white"/>
<path d="M453.99 372.4C453.99 373.357 453.707 374.293 453.175 375.089C452.643 375.884 451.887 376.505 451.003 376.871C450.118 377.237 449.145 377.333 448.206 377.147C447.267 376.96 446.405 376.499 445.728 375.822C445.051 375.145 444.59 374.283 444.404 373.344C444.217 372.405 444.313 371.432 444.679 370.547C445.045 369.663 445.666 368.907 446.462 368.375C447.257 367.844 448.193 367.56 449.15 367.56C450.434 367.56 451.665 368.07 452.573 368.977C453.48 369.885 453.99 371.116 453.99 372.4Z" fill="white"/>
<path d="M467.185 372.4C467.185 373.357 466.901 374.293 466.369 375.089C465.837 375.884 465.081 376.505 464.197 376.871C463.313 377.237 462.339 377.333 461.401 377.147C460.462 376.96 459.599 376.499 458.922 375.822C458.246 375.145 457.785 374.283 457.598 373.344C457.411 372.405 457.507 371.432 457.873 370.547C458.24 369.663 458.86 368.907 459.656 368.375C460.452 367.844 461.388 367.56 462.345 367.56C463.628 367.56 464.859 368.07 465.767 368.977C466.675 369.885 467.185 371.116 467.185 372.4Z" fill="white"/>
<path d="M481.214 370.263H470.936C470.434 370.263 470.027 370.669 470.027 371.171V373.564C470.027 374.066 470.434 374.472 470.936 374.472H481.214C481.715 374.472 482.122 374.066 482.122 373.564V371.171C482.122 370.669 481.715 370.263 481.214 370.263Z" fill="white"/>
<path d="M346.626 389.323H334.521V393.351H346.626V389.323Z" fill="white"/>
<path d="M476.086 389.323H463.98V393.351H476.086V389.323Z" fill="white"/>
<path d="M490.486 368.008H492.997C493.431 368.008 493.846 368.181 494.153 368.487C494.46 368.794 494.632 369.21 494.632 369.643V375.103C494.632 375.536 494.46 375.952 494.153 376.259C493.846 376.565 493.431 376.737 492.997 376.737H490.486V368.008Z" fill="url(#paint5_linear_3120_1671)"/>
<path d="M481.042 317.483H328.814C323.598 317.483 319.37 321.712 319.37 326.928V341.939C319.37 347.155 323.598 351.384 328.814 351.384H481.042C486.258 351.384 490.487 347.155 490.487 341.939V326.928C490.487 321.712 486.258 317.483 481.042 317.483Z" fill="url(#paint6_linear_3120_1671)"/>
<path d="M339.926 325.026H329.114C328.353 325.026 327.736 325.643 327.736 326.404V342.473C327.736 343.235 328.353 343.852 329.114 343.852H339.926C340.688 343.852 341.305 343.235 341.305 342.473V326.404C341.305 325.643 340.688 325.026 339.926 325.026Z" fill="white"/>
<path d="M357.181 325.026H346.368C345.607 325.026 344.99 325.643 344.99 326.404V342.473C344.99 343.235 345.607 343.852 346.368 343.852H357.181C357.942 343.852 358.559 343.235 358.559 342.473V326.404C358.559 325.643 357.942 325.026 357.181 325.026Z" fill="white"/>
<path d="M438.081 325.026H363.613C362.851 325.026 362.234 325.643 362.234 326.404V342.473C362.234 343.234 362.851 343.851 363.613 343.851H438.081C438.842 343.851 439.459 343.234 439.459 342.473V326.404C439.459 325.643 438.842 325.026 438.081 325.026Z" fill="white"/>
<path d="M453.99 334.46C453.99 335.418 453.707 336.353 453.175 337.149C452.643 337.945 451.887 338.565 451.003 338.932C450.118 339.298 449.145 339.394 448.206 339.207C447.267 339.02 446.405 338.559 445.728 337.883C445.051 337.206 444.59 336.343 444.404 335.404C444.217 334.466 444.313 333.492 444.679 332.608C445.045 331.724 445.666 330.968 446.462 330.436C447.257 329.904 448.193 329.62 449.15 329.62C450.434 329.62 451.665 330.13 452.573 331.038C453.48 331.946 453.99 333.177 453.99 334.46Z" fill="white"/>
<path d="M467.185 334.46C467.185 335.418 466.901 336.353 466.369 337.149C465.837 337.945 465.081 338.566 464.197 338.932C463.313 339.298 462.339 339.394 461.401 339.207C460.462 339.021 459.599 338.56 458.922 337.883C458.246 337.206 457.785 336.343 457.598 335.405C457.411 334.466 457.507 333.493 457.873 332.608C458.24 331.724 458.86 330.968 459.656 330.436C460.452 329.904 461.388 329.62 462.345 329.62C463.628 329.62 464.859 330.13 465.767 331.038C466.675 331.946 467.185 333.177 467.185 334.46Z" fill="white"/>
<path d="M481.214 332.334H470.936C470.434 332.334 470.027 332.741 470.027 333.242V335.635C470.027 336.137 470.434 336.544 470.936 336.544H481.214C481.715 336.544 482.122 336.137 482.122 335.635V333.242C482.122 332.741 481.715 332.334 481.214 332.334Z" fill="white"/>
<path d="M346.626 351.384H334.521V355.412H346.626V351.384Z" fill="white"/>
<path d="M476.086 351.384H463.98V355.412H476.086V351.384Z" fill="white"/>
<path d="M490.486 330.069H492.997C493.431 330.069 493.846 330.241 494.153 330.548C494.46 330.854 494.632 331.27 494.632 331.704V337.163C494.632 337.597 494.46 338.013 494.153 338.319C493.846 338.626 493.431 338.798 492.997 338.798H490.486V330.069Z" fill="url(#paint7_linear_3120_1671)"/>
<path d="M481.042 279.544H328.814C323.598 279.544 319.37 283.772 319.37 288.989V304C319.37 309.216 323.598 313.445 328.814 313.445H481.042C486.258 313.445 490.487 309.216 490.487 304V288.989C490.487 283.772 486.258 279.544 481.042 279.544Z" fill="url(#paint8_linear_3120_1671)"/>
<path d="M339.926 287.087H329.114C328.353 287.087 327.736 287.704 327.736 288.465V304.534C327.736 305.295 328.353 305.912 329.114 305.912H339.926C340.688 305.912 341.305 305.295 341.305 304.534V288.465C341.305 287.704 340.688 287.087 339.926 287.087Z" fill="white"/>
<path d="M357.181 287.087H346.368C345.607 287.087 344.99 287.704 344.99 288.465V304.534C344.99 305.295 345.607 305.912 346.368 305.912H357.181C357.942 305.912 358.559 305.295 358.559 304.534V288.465C358.559 287.704 357.942 287.087 357.181 287.087Z" fill="white"/>
<path d="M438.081 287.087H363.613C362.851 287.087 362.234 287.704 362.234 288.465V304.534C362.234 305.295 362.851 305.912 363.613 305.912H438.081C438.842 305.912 439.459 305.295 439.459 304.534V288.465C439.459 287.704 438.842 287.087 438.081 287.087Z" fill="white"/>
<path d="M453.99 296.532C453.99 297.489 453.707 298.425 453.175 299.22C452.643 300.016 451.887 300.637 451.003 301.003C450.118 301.369 449.145 301.465 448.206 301.278C447.267 301.092 446.405 300.631 445.728 299.954C445.051 299.277 444.59 298.415 444.404 297.476C444.217 296.537 444.313 295.564 444.679 294.679C445.045 293.795 445.666 293.039 446.462 292.507C447.257 291.975 448.193 291.692 449.15 291.692C450.434 291.692 451.665 292.202 452.573 293.109C453.48 294.017 453.99 295.248 453.99 296.532Z" fill="white"/>
<path d="M467.185 296.532C467.185 297.489 466.901 298.425 466.369 299.22C465.837 300.016 465.081 300.637 464.197 301.003C463.313 301.369 462.339 301.465 461.401 301.278C460.462 301.092 459.599 300.631 458.922 299.954C458.246 299.277 457.785 298.415 457.598 297.476C457.411 296.537 457.507 295.564 457.873 294.679C458.24 293.795 458.86 293.039 459.656 292.507C460.452 291.975 461.388 291.692 462.345 291.692C463.628 291.692 464.859 292.202 465.767 293.109C466.675 294.017 467.185 295.248 467.185 296.532Z" fill="white"/>
<path d="M481.214 294.395H470.936C470.434 294.395 470.027 294.801 470.027 295.303V297.696C470.027 298.198 470.434 298.604 470.936 298.604H481.214C481.715 298.604 482.122 298.198 482.122 297.696V295.303C482.122 294.801 481.715 294.395 481.214 294.395Z" fill="white"/>
<path d="M346.626 313.455H334.521V317.483H346.626V313.455Z" fill="white"/>
<path d="M476.086 313.455H463.98V317.483H476.086V313.455Z" fill="white"/>
<path d="M490.486 292.13H492.997C493.431 292.13 493.846 292.302 494.153 292.609C494.46 292.915 494.632 293.331 494.632 293.764V299.224C494.632 299.658 494.46 300.073 494.153 300.38C493.846 300.686 493.431 300.859 492.997 300.859H490.486V292.13Z" fill="url(#paint9_linear_3120_1671)"/>
<path d="M481.042 241.615H328.814C323.598 241.615 319.37 245.844 319.37 251.06V266.071C319.37 271.287 323.598 275.516 328.814 275.516H481.042C486.258 275.516 490.487 271.287 490.487 266.071V251.06C490.487 245.844 486.258 241.615 481.042 241.615Z" fill="url(#paint10_linear_3120_1671)"/>
<path d="M339.926 249.158H329.114C328.353 249.158 327.736 249.775 327.736 250.536V266.605C327.736 267.367 328.353 267.984 329.114 267.984H339.926C340.688 267.984 341.305 267.367 341.305 266.605V250.536C341.305 249.775 340.688 249.158 339.926 249.158Z" fill="white"/>
<path d="M357.181 249.158H346.368C345.607 249.158 344.99 249.775 344.99 250.536V266.605C344.99 267.367 345.607 267.984 346.368 267.984H357.181C357.942 267.984 358.559 267.367 358.559 266.605V250.536C358.559 249.775 357.942 249.158 357.181 249.158Z" fill="white"/>
<path d="M438.081 249.158H363.613C362.851 249.158 362.234 249.775 362.234 250.536V266.605C362.234 267.367 362.851 267.984 363.613 267.984H438.081C438.842 267.984 439.459 267.367 439.459 266.605V250.536C439.459 249.775 438.842 249.158 438.081 249.158Z" fill="white"/>
<path d="M453.99 258.592C453.99 259.549 453.707 260.485 453.175 261.281C452.643 262.077 451.887 262.697 451.003 263.064C450.118 263.43 449.145 263.526 448.206 263.339C447.267 263.152 446.405 262.691 445.728 262.015C445.051 261.338 444.59 260.475 444.404 259.536C444.217 258.598 444.313 257.624 444.679 256.74C445.045 255.856 445.666 255.1 446.462 254.568C447.257 254.036 448.193 253.752 449.15 253.752C450.434 253.752 451.665 254.262 452.573 255.17C453.48 256.078 453.99 257.309 453.99 258.592Z" fill="white"/>
<path d="M467.185 258.592C467.185 259.549 466.901 260.485 466.369 261.281C465.837 262.077 465.081 262.697 464.197 263.064C463.313 263.43 462.339 263.526 461.401 263.339C460.462 263.152 459.599 262.691 458.922 262.015C458.246 261.338 457.785 260.475 457.598 259.536C457.411 258.598 457.507 257.624 457.873 256.74C458.24 255.856 458.86 255.1 459.656 254.568C460.452 254.036 461.388 253.752 462.345 253.752C463.628 253.752 464.859 254.262 465.767 255.17C466.675 256.078 467.185 257.309 467.185 258.592Z" fill="white"/>
<path d="M481.214 256.455H470.936C470.434 256.455 470.027 256.862 470.027 257.363V259.757C470.027 260.258 470.434 260.665 470.936 260.665H481.214C481.715 260.665 482.122 260.258 482.122 259.757V257.363C482.122 256.862 481.715 256.455 481.214 256.455Z" fill="white"/>
<path d="M346.626 275.516H334.521V279.544H346.626V275.516Z" fill="white"/>
<path d="M476.086 275.516H463.98V279.544H476.086V275.516Z" fill="white"/>
<path d="M490.486 254.201H492.997C493.431 254.201 493.846 254.373 494.153 254.68C494.46 254.986 494.632 255.402 494.632 255.836V261.295C494.632 261.729 494.46 262.145 494.153 262.451C493.846 262.758 493.431 262.93 492.997 262.93H490.486V254.201Z" fill="url(#paint11_linear_3120_1671)"/>
<path d="M481.042 203.676H328.814C323.598 203.676 319.37 207.904 319.37 213.121V228.132C319.37 233.348 323.598 237.577 328.814 237.577H481.042C486.258 237.577 490.487 233.348 490.487 228.132V213.121C490.487 207.904 486.258 203.676 481.042 203.676Z" fill="url(#paint12_linear_3120_1671)"/>
<path d="M339.926 211.219H329.114C328.353 211.219 327.736 211.836 327.736 212.597V228.666C327.736 229.427 328.353 230.044 329.114 230.044H339.926C340.688 230.044 341.305 229.427 341.305 228.666V212.597C341.305 211.836 340.688 211.219 339.926 211.219Z" fill="white"/>
<path d="M357.181 211.219H346.368C345.607 211.219 344.99 211.836 344.99 212.597V228.666C344.99 229.427 345.607 230.044 346.368 230.044H357.181C357.942 230.044 358.559 229.427 358.559 228.666V212.597C358.559 211.836 357.942 211.219 357.181 211.219Z" fill="white"/>
<path d="M438.081 211.219H363.613C362.851 211.219 362.234 211.836 362.234 212.597V228.666C362.234 229.427 362.851 230.044 363.613 230.044H438.081C438.842 230.044 439.459 229.427 439.459 228.666V212.597C439.459 211.836 438.842 211.219 438.081 211.219Z" fill="white"/>
<path d="M453.99 220.653C453.992 221.611 453.71 222.547 453.18 223.345C452.649 224.142 451.894 224.764 451.01 225.132C450.126 225.5 449.152 225.597 448.213 225.412C447.273 225.226 446.41 224.766 445.732 224.09C445.054 223.413 444.592 222.551 444.404 221.612C444.217 220.673 444.312 219.699 444.678 218.814C445.044 217.929 445.664 217.172 446.46 216.64C447.257 216.108 448.193 215.824 449.15 215.824C450.432 215.824 451.662 216.332 452.569 217.237C453.476 218.143 453.988 219.371 453.99 220.653Z" fill="white"/>
<path d="M467.185 220.653C467.187 221.611 466.905 222.547 466.374 223.345C465.844 224.142 465.089 224.764 464.204 225.132C463.32 225.5 462.347 225.597 461.407 225.412C460.468 225.226 459.604 224.766 458.926 224.09C458.248 223.413 457.786 222.551 457.599 221.612C457.411 220.673 457.506 219.699 457.872 218.814C458.238 217.929 458.859 217.172 459.655 216.64C460.451 216.108 461.387 215.824 462.345 215.824C462.98 215.822 463.609 215.946 464.196 216.188C464.783 216.43 465.317 216.786 465.766 217.234C466.216 217.683 466.573 218.216 466.816 218.802C467.059 219.389 467.185 220.018 467.185 220.653Z" fill="url(#paint13_linear_3120_1671)"/>
<path d="M481.214 218.527H470.936C470.434 218.527 470.027 218.933 470.027 219.435V221.828C470.027 222.33 470.434 222.736 470.936 222.736H481.214C481.715 222.736 482.122 222.33 482.122 221.828V219.435C482.122 218.933 481.715 218.527 481.214 218.527Z" fill="white"/>
<path d="M346.626 237.577H334.521V241.604H346.626V237.577Z" fill="white"/>
<path d="M476.086 237.577H463.98V241.604H476.086V237.577Z" fill="white"/>
<path d="M490.486 216.262H492.997C493.431 216.262 493.846 216.434 494.153 216.74C494.46 217.047 494.632 217.463 494.632 217.896V223.356C494.632 223.79 494.46 224.205 494.153 224.512C493.846 224.818 493.431 224.991 492.997 224.991H490.486V216.262Z" fill="url(#paint14_linear_3120_1671)"/>
<path d="M350.974 271.125C350.974 271.125 351.968 273.262 352.609 274.896C353.25 276.531 352.427 279.544 352.427 279.544H351.124C351.124 279.544 345.942 283.401 343.41 284.971C340.878 286.542 339.82 287.108 338.474 287.108C337.469 287.108 334.959 286.35 335.204 284.79C335.45 283.23 343.581 272.332 343.581 272.332C343.581 272.332 349.168 272.418 350.974 271.125Z" fill="black"/>
<path d="M323.783 232.48C324.685 233.547 325.527 234.663 326.304 235.824C327.608 237.758 327.736 241.615 327.736 241.615L307.788 251.092C307.788 251.092 304.348 248.88 307.436 245.216C311.485 240.397 315.46 235.6 315.46 235.6C318.445 235.246 321.3 234.176 323.783 232.48Z" fill="black"/>
<path d="M313.59 229.35L315.46 235.632C315.46 235.632 320.535 235.942 323.783 232.512L322.544 227.042" fill="url(#paint15_linear_3120_1671)"/>
<path d="M332.811 181.026C332.811 181.026 340.343 182.03 344.628 181.538C349.596 180.972 344.991 176.26 344.991 176.26L333.345 179.06L332.811 181.026Z" fill="url(#paint16_linear_3120_1671)"/>
<path d="M357.074 187.831L355.728 203.708H339.894C335.248 202.437 330.675 200.911 326.197 199.135C323.547 198.067 320.737 196.87 317.981 195.503C318.975 197.639 319.391 199.691 319.958 204.05C321.817 218.495 323.376 229.04 323.376 229.04C320.535 230.949 317.184 231.955 313.761 231.925C313.761 231.925 302.008 199.958 300.171 188.75C299.177 182.596 303.451 175.844 317.062 177.575C321.902 178.194 334.402 181.421 338.954 182.511C345.087 183.949 351.137 185.725 357.074 187.831Z" fill="black"/>
<path style="mix-blend-mode:multiply" opacity="0.5" d="M350.439 203.708H339.894C335.247 202.437 330.675 200.91 326.197 199.135C332.715 200.932 339.428 201.932 346.187 202.116C349.029 202.116 350.172 202.308 350.439 203.708Z" fill="url(#paint17_linear_3120_1671)"/>
<path d="M342.373 266.52L343.58 272.311C343.58 272.311 349.168 273.379 350.973 271.125L350.621 267.043" fill="url(#paint18_linear_3120_1671)"/>
<path d="M377.428 185.545C377.428 185.545 362.993 189.616 355.824 185.78C355.824 185.78 333.633 212.939 332.768 223.174C332.543 225.813 336.133 240.119 338.911 252.289C341.176 262.246 342.715 270.719 342.715 270.719C342.715 270.719 347.993 270.815 351.198 269.565C351.198 269.565 350.375 234.307 347.608 225.493C354.446 220.664 365.13 213.324 371.359 205.695C371.864 205.069 372.501 204.564 373.226 204.214C373.95 203.865 374.743 203.681 375.547 203.676C375.547 203.676 380.953 196.881 377.428 185.545Z" fill="black"/>
<path d="M343.987 159.775C343.218 159.593 342.491 159.39 341.786 159.187C334.574 157.05 332.576 154.54 332.576 154.54C337.106 141.847 339.97 138.994 342.085 136.654C345.985 132.381 343.036 146.11 342.587 146.345L343.987 159.775Z" fill="#0066B2"/>
<path style="mix-blend-mode:multiply" d="M342.416 147.21L340.76 154.892L344.767 153.888L342.416 147.21Z" fill="url(#paint19_linear_3120_1671)"/>
<path d="M377.716 184.316C377.962 186.368 379.19 187.126 379.169 189.477C379.169 190.043 377.224 192.468 372.288 193.344C368.823 194.647 365.07 194.988 361.427 194.332C357.784 193.675 354.386 192.046 351.593 189.616C348.409 187.028 344.93 184.827 341.23 183.056C340.995 182.906 341.037 182.5 341.304 182.115C341.572 181.731 342.768 179.978 342.8 179.818C344.777 169.134 343.11 168.119 342.993 159.978C342.993 159.775 342.993 159.572 342.993 159.369C342.779 146.815 341.507 140.533 342.095 136.654C345.012 133.449 353.036 130.853 353.548 130.746C353.548 130.746 362 130.682 363.837 130.746C368.047 131.814 375.494 134.058 379.201 140.362C378.998 145.405 379.319 151.527 378.71 159.379C378.592 160.576 376.658 175.566 377.716 184.316Z" fill="#0066B2"/>
<path d="M345.098 111.418C345.098 111.418 344.468 115.788 346.498 116.589L347.299 111.75" fill="#192139"/>
<path d="M355.728 136.964C350.792 136.376 353.003 131.344 353.527 130.682C353.527 130.682 354.35 125.34 354.414 125.073L362.779 121.419C362.779 121.419 362.972 130.554 363.848 130.682C365.13 131.291 363.399 137.883 355.728 136.964Z" fill="url(#paint20_linear_3120_1671)"/>
<path style="mix-blend-mode:multiply" d="M359.884 124.474C359.283 125.676 358.421 126.728 357.362 127.554C356.303 128.38 355.073 128.96 353.762 129.25L354.424 125.083L359.884 124.474Z" fill="url(#paint21_linear_3120_1671)"/>
<path d="M346.102 111.205C346.102 111.205 344.2 125.628 350.568 127.99C350.568 127.99 356.893 128.588 360.59 123.62C361.658 122.199 362.993 121.878 363.432 120.147C364.147 117.337 365.152 112.166 363.87 109.047C362.043 104.613 346.273 100.392 346.102 111.205Z" fill="url(#paint22_linear_3120_1671)"/>
<path d="M350.343 101.14C350.343 101.14 351.828 97.7106 356.39 99.3453C358.303 100.025 359.978 101.246 361.209 102.86C361.399 102.717 361.618 102.616 361.851 102.565C362.084 102.515 362.325 102.516 362.558 102.567C362.791 102.619 363.009 102.721 363.199 102.866C363.388 103.01 363.544 103.194 363.655 103.405C364.414 104.474 363.933 106.611 363.933 106.611C371.519 108.01 363.858 124.122 363.762 124.635L362.95 125.115C362.737 122.754 362.811 120.596 362.672 118.951C362.672 118.459 361.839 118.16 361.657 117.818C360.162 118.064 358.698 118.043 357.854 117.327C356.369 116.066 356.07 113.983 355.92 112.583C354.51 113.053 342.928 114.891 343.494 108.309C343.171 107.66 342.938 106.97 342.8 106.258C341.443 97.9991 350.343 101.14 350.343 101.14Z" fill="#192139"/>
<path d="M360.172 120.938C363.036 122.006 363.933 114.976 361.241 114.656C359.179 114.421 359.104 117.305 359.104 117.305C359.104 117.305 358.527 120.308 360.172 120.938Z" fill="url(#paint23_linear_3120_1671)"/>
<path style="mix-blend-mode:multiply" d="M367.171 150.02L370.472 160.897L377.15 161.837L367.171 150.02Z" fill="url(#paint24_linear_3120_1671)"/>
<path d="M388.636 162.745C386.455 156.585 383.911 150.559 381.018 144.699L369.853 151.11C369.853 151.11 374.127 159.657 376.947 165.576C374.223 166.239 367.171 168.001 361.776 169.743C357.479 171.108 353.06 172.052 348.581 172.564C348.771 173.894 348.871 175.236 348.88 176.581C358.253 177.021 367.643 176.978 377.012 176.453C379.867 176.37 382.704 175.976 385.473 175.277C388.08 174.38 389.854 173.685 389.971 171.004C390.015 168.194 389.562 165.398 388.636 162.745Z" fill="url(#paint25_linear_3120_1671)"/>
<path d="M361.658 179.818H346.188V178.301H361.658C361.758 178.301 361.856 178.321 361.948 178.359C362.04 178.397 362.124 178.453 362.195 178.523C362.265 178.594 362.321 178.677 362.359 178.769C362.397 178.861 362.417 178.96 362.417 179.06C362.417 179.261 362.337 179.454 362.195 179.596C362.052 179.738 361.859 179.818 361.658 179.818Z" fill="white"/>
<path d="M353.282 179.818H316.315C316.09 179.812 315.874 179.736 315.695 179.599C315.517 179.463 315.386 179.274 315.321 179.06L307.436 150.522C307.397 150.375 307.392 150.221 307.422 150.071C307.452 149.922 307.515 149.781 307.608 149.66C307.701 149.539 307.821 149.441 307.958 149.374C308.095 149.307 308.245 149.272 308.398 149.272H344.083C344.507 149.271 344.92 149.41 345.258 149.666C345.596 149.923 345.84 150.284 345.952 150.693L353.859 179.124C353.881 179.209 353.882 179.299 353.863 179.385C353.844 179.471 353.805 179.551 353.748 179.619C353.692 179.687 353.62 179.74 353.539 179.775C353.458 179.81 353.37 179.824 353.282 179.818Z" fill="white"/>
<path d="M351.882 179.818H314.915C314.691 179.812 314.474 179.736 314.296 179.599C314.117 179.463 313.986 179.274 313.921 179.06L305.994 150.522C305.954 150.375 305.949 150.221 305.979 150.071C306.009 149.922 306.073 149.781 306.166 149.66C306.259 149.539 306.379 149.441 306.515 149.374C306.652 149.307 306.803 149.272 306.955 149.272H342.694C343.118 149.271 343.531 149.41 343.869 149.666C344.207 149.923 344.451 150.284 344.563 150.693L352.405 179.134C352.427 179.215 352.429 179.299 352.413 179.38C352.397 179.462 352.362 179.539 352.311 179.605C352.261 179.67 352.196 179.724 352.121 179.761C352.047 179.798 351.965 179.818 351.882 179.818Z" fill="#15162B"/>
<path d="M319.253 179.818C319.253 179.818 319.894 181.25 322.8 181.538L322.597 179.818H319.253Z" fill="url(#paint26_linear_3120_1671)"/>
<path d="M319.936 174.968C320 174.69 320.641 174.391 321.164 174.572C321.008 174.171 320.876 173.761 320.769 173.344C320.769 172.596 321.56 172.681 321.987 172.916C322.414 173.151 323.055 174.444 323.184 174.572C323.029 174.279 322.904 173.971 322.81 173.653C322.885 173.508 322.993 173.382 323.124 173.285C323.256 173.188 323.408 173.123 323.569 173.094C323.73 173.065 323.896 173.073 324.053 173.118C324.211 173.164 324.355 173.244 324.476 173.354C324.982 174.015 325.439 174.711 325.844 175.438C325.795 175.293 325.766 175.142 325.759 174.989C325.865 174.54 326.709 174.38 327.276 174.903C328.102 175.984 328.781 177.17 329.295 178.429C329.84 179.658 330.363 179.818 330.513 179.818H333.547C333.442 180.227 333.233 180.601 332.941 180.906C332.649 181.211 332.284 181.436 331.881 181.56C329.796 182.141 327.631 182.376 325.47 182.254C324.737 182.279 324.007 182.132 323.341 181.824C322.675 181.516 322.09 181.056 321.634 180.481C321.191 179.359 320.834 178.205 320.566 177.03C320.449 176.613 319.925 175.01 319.936 174.968Z" fill="url(#paint27_linear_3120_1671)"/>
<path d="M379.191 140.372C379.191 140.372 381.648 143.449 386.061 154.155C381.448 156.714 376.478 158.569 371.317 159.657C371.317 159.657 369.618 156.228 365.633 146.184" fill="#0066B2"/>
<path d="M222.85 394.046H247.028L247.028 245.226H222.85L222.85 394.046Z" fill="url(#paint28_linear_3120_1671)"/>
<path d="M221.493 394.046H243.823L243.823 245.226H221.493L221.493 394.046Z" fill="url(#paint29_linear_3120_1671)"/>
<path style="mix-blend-mode:multiply" opacity="0.5" d="M243.822 269.137H221.492V274.415H243.822V269.137Z" fill="url(#paint30_linear_3120_1671)"/>
<path d="M187.977 266.605L192.304 266.093L203.864 193.173C203.919 192.836 204.093 192.53 204.353 192.309C204.613 192.088 204.943 191.967 205.285 191.966H285.266L286.046 189.466L289.251 191.485C289.251 191.485 289.326 191.485 289.348 191.549C289.546 191.707 289.7 191.915 289.792 192.152C289.884 192.388 289.911 192.645 289.871 192.896L277.948 267.93C277.896 268.267 277.726 268.574 277.467 268.796C277.208 269.018 276.878 269.139 276.537 269.137H192.304C191.951 269.134 191.613 269.001 191.353 268.764L187.977 266.605Z" fill="url(#paint31_linear_3120_1671)"/>
<path d="M188.917 266.958H273.15C273.491 266.959 273.821 266.838 274.08 266.616C274.339 266.395 274.509 266.088 274.561 265.751L286.463 190.716C286.495 190.512 286.483 190.303 286.427 190.104C286.371 189.905 286.273 189.721 286.139 189.563C286.005 189.406 285.838 189.28 285.651 189.193C285.463 189.106 285.259 189.06 285.053 189.06H200.819C200.478 189.059 200.148 189.18 199.889 189.401C199.63 189.623 199.46 189.93 199.409 190.267L187.506 265.302C187.474 265.506 187.486 265.715 187.542 265.914C187.598 266.113 187.696 266.297 187.83 266.455C187.964 266.612 188.131 266.738 188.318 266.825C188.506 266.912 188.71 266.957 188.917 266.958Z" fill="url(#paint32_linear_3120_1671)"/>
<path d="M192.86 263.4H270.181C270.397 263.396 270.604 263.317 270.768 263.176C270.932 263.036 271.041 262.843 271.079 262.631L282.008 193.675C282.032 193.544 282.026 193.41 281.992 193.281C281.958 193.153 281.896 193.033 281.81 192.931C281.724 192.829 281.617 192.747 281.496 192.691C281.376 192.635 281.244 192.607 281.111 192.607H203.801C203.584 192.609 203.376 192.688 203.212 192.828C203.048 192.969 202.938 193.163 202.903 193.376L191.973 262.321C191.948 262.452 191.952 262.587 191.985 262.716C192.018 262.845 192.079 262.966 192.164 263.069C192.248 263.172 192.354 263.255 192.475 263.312C192.595 263.369 192.727 263.399 192.86 263.4Z" fill="white"/>
<path d="M219.634 230.899H245.329C245.604 230.898 245.869 230.799 246.079 230.622C246.288 230.444 246.427 230.198 246.473 229.927L250.084 207.17C250.108 207.005 250.097 206.836 250.051 206.676C250.005 206.516 249.925 206.368 249.817 206.241C249.708 206.115 249.574 206.013 249.423 205.942C249.272 205.872 249.107 205.835 248.941 205.834H223.245C222.971 205.835 222.705 205.934 222.496 206.111C222.287 206.289 222.148 206.535 222.102 206.806L218.502 229.563C218.474 229.728 218.482 229.897 218.526 230.058C218.57 230.219 218.649 230.368 218.757 230.495C218.865 230.622 218.999 230.725 219.151 230.794C219.302 230.864 219.467 230.9 219.634 230.899Z" fill="url(#paint33_linear_3120_1671)"/>
<path d="M224.517 227.811H222.743C222.684 227.812 222.626 227.8 222.573 227.776C222.519 227.752 222.471 227.716 222.434 227.67C222.396 227.625 222.368 227.572 222.354 227.516C222.339 227.459 222.337 227.399 222.348 227.341L224.485 213.965C224.509 213.836 224.576 213.72 224.675 213.634C224.774 213.549 224.899 213.5 225.03 213.495H226.803C226.862 213.494 226.92 213.506 226.974 213.53C227.028 213.554 227.075 213.59 227.113 213.635C227.151 213.68 227.178 213.733 227.193 213.79C227.208 213.847 227.21 213.907 227.199 213.965L225.062 227.341C225.038 227.47 224.971 227.586 224.872 227.672C224.773 227.757 224.648 227.806 224.517 227.811Z" fill="#EEF6FD"/>
<path d="M229.1 227.811H227.305C227.246 227.812 227.188 227.8 227.135 227.776C227.081 227.752 227.033 227.716 226.996 227.671C226.958 227.625 226.93 227.573 226.916 227.516C226.901 227.459 226.899 227.399 226.91 227.341L228.587 216.743C228.61 216.613 228.676 216.496 228.776 216.41C228.875 216.324 229.001 216.276 229.132 216.273H230.917C230.975 216.271 231.034 216.284 231.087 216.308C231.141 216.332 231.188 216.368 231.226 216.413C231.264 216.458 231.291 216.511 231.306 216.568C231.321 216.625 231.323 216.685 231.312 216.743L229.624 227.341C229.601 227.466 229.537 227.58 229.442 227.665C229.347 227.75 229.227 227.802 229.1 227.811Z" fill="#EEF6FD"/>
<path d="M233.715 227.811H231.942C231.882 227.814 231.823 227.804 231.768 227.78C231.714 227.756 231.665 227.72 231.627 227.675C231.589 227.629 231.561 227.575 231.547 227.517C231.533 227.46 231.533 227.399 231.546 227.341L233.544 214.755C233.567 214.626 233.633 214.508 233.732 214.423C233.832 214.337 233.958 214.288 234.089 214.285H235.852C235.911 214.284 235.969 214.296 236.023 214.321C236.076 214.345 236.124 214.381 236.162 214.426C236.2 214.471 236.227 214.524 236.242 214.581C236.257 214.638 236.259 214.698 236.247 214.755L234.249 227.341C234.226 227.468 234.16 227.583 234.063 227.668C233.967 227.754 233.844 227.804 233.715 227.811Z" fill="#EEF6FD"/>
<path d="M238.267 227.811H236.483C236.424 227.812 236.366 227.8 236.312 227.776C236.259 227.751 236.211 227.715 236.173 227.67C236.135 227.625 236.108 227.572 236.093 227.515C236.078 227.458 236.077 227.399 236.088 227.341L239.079 208.537C239.103 208.409 239.17 208.292 239.269 208.207C239.368 208.121 239.494 208.072 239.624 208.067H241.398C241.457 208.066 241.515 208.078 241.569 208.102C241.622 208.127 241.67 208.163 241.707 208.208C241.745 208.253 241.773 208.306 241.787 208.363C241.802 208.42 241.804 208.479 241.793 208.537L238.812 227.341C238.788 227.47 238.721 227.586 238.622 227.672C238.523 227.757 238.398 227.806 238.267 227.811Z" fill="#EEF6FD"/>
<path d="M242.84 227.811H241.066C241.007 227.812 240.949 227.8 240.895 227.776C240.842 227.752 240.794 227.716 240.756 227.67C240.718 227.625 240.691 227.572 240.676 227.515C240.661 227.459 240.66 227.399 240.671 227.341L243.043 212.437C243.065 212.307 243.131 212.19 243.231 212.104C243.33 212.018 243.456 211.97 243.587 211.967H245.361C245.42 211.966 245.478 211.978 245.532 212.002C245.585 212.026 245.633 212.063 245.671 212.108C245.709 212.153 245.736 212.206 245.751 212.263C245.766 212.319 245.768 212.379 245.756 212.437L243.384 227.341C243.362 227.471 243.296 227.588 243.196 227.674C243.097 227.76 242.971 227.808 242.84 227.811Z" fill="#EEF6FD"/>
<path d="M252.242 246.957H266.356C266.506 246.956 266.651 246.902 266.764 246.804C266.878 246.706 266.953 246.571 266.975 246.423L268.973 233.933C268.989 233.843 268.985 233.75 268.961 233.662C268.937 233.573 268.894 233.491 268.835 233.421C268.776 233.351 268.702 233.294 268.619 233.255C268.536 233.217 268.445 233.196 268.354 233.196H254.229C254.078 233.196 253.932 233.25 253.817 233.348C253.701 233.446 253.624 233.581 253.599 233.73L251.622 246.22C251.607 246.31 251.611 246.403 251.635 246.492C251.659 246.58 251.702 246.662 251.761 246.732C251.82 246.803 251.894 246.859 251.977 246.898C252.06 246.937 252.15 246.957 252.242 246.957Z" fill="url(#paint34_linear_3120_1671)"/>
<path opacity="0.5" d="M223.416 256.487H254.731C254.937 256.488 255.136 256.415 255.292 256.281C255.449 256.148 255.553 255.964 255.586 255.761L258.289 238.763C258.309 238.64 258.303 238.515 258.269 238.395C258.236 238.276 258.177 238.165 258.097 238.07C258.017 237.976 257.917 237.9 257.804 237.848C257.692 237.796 257.569 237.769 257.445 237.769H226.109C225.904 237.769 225.707 237.843 225.552 237.976C225.397 238.109 225.295 238.293 225.264 238.495L222.572 255.494C222.554 255.616 222.562 255.741 222.596 255.859C222.629 255.978 222.688 256.088 222.768 256.182C222.848 256.277 222.947 256.352 223.059 256.405C223.171 256.458 223.293 256.486 223.416 256.487Z" fill="url(#paint35_linear_3120_1671)"/>
<path d="M227.102 245.066L225.958 252.246H253.513L254.912 243.357C254.261 243.092 253.555 242.987 252.854 243.05C252.154 243.113 251.478 243.343 250.885 243.72C249.068 244.714 246.429 247.598 244.613 247.385C242.797 247.171 241.664 242.534 239.196 242.566C236.728 242.598 234.709 247.694 232.722 247.748C230.734 247.801 228.373 245.002 227.102 245.066Z" fill="white"/>
<path d="M256.205 212.031H271.43C271.53 212.03 271.626 211.994 271.702 211.93C271.778 211.865 271.829 211.776 271.847 211.678L273.15 203.409C273.159 203.35 273.156 203.289 273.14 203.232C273.124 203.175 273.095 203.121 273.057 203.076C273.018 203.03 272.971 202.993 272.917 202.968C272.863 202.942 272.804 202.929 272.744 202.928H257.519C257.42 202.929 257.324 202.965 257.247 203.029C257.171 203.093 257.12 203.182 257.103 203.28L255.799 211.539C255.788 211.599 255.791 211.66 255.806 211.719C255.821 211.778 255.849 211.833 255.888 211.879C255.927 211.926 255.975 211.964 256.03 211.99C256.085 212.016 256.145 212.03 256.205 212.031Z" fill="url(#paint36_linear_3120_1671)"/>
<g opacity="0.4">
<path d="M257.69 214.948H268.3C268.459 214.948 268.613 214.893 268.736 214.791C268.859 214.69 268.943 214.549 268.973 214.392C268.986 214.323 268.983 214.251 268.964 214.183C268.946 214.115 268.912 214.052 268.866 213.999C268.82 213.945 268.762 213.903 268.698 213.875C268.633 213.847 268.562 213.834 268.492 213.836H257.883C257.726 213.839 257.576 213.896 257.457 213.997C257.338 214.099 257.258 214.238 257.231 214.392C257.216 214.46 257.217 214.53 257.234 214.597C257.25 214.665 257.282 214.728 257.326 214.781C257.37 214.834 257.426 214.877 257.489 214.906C257.552 214.935 257.621 214.949 257.69 214.948Z" fill="url(#paint37_linear_3120_1671)" fill-opacity="0.16"/>
<path d="M257.359 217.063H267.969C268.125 217.061 268.275 217.004 268.394 216.902C268.513 216.801 268.593 216.661 268.62 216.508C268.637 216.438 268.637 216.366 268.621 216.296C268.605 216.226 268.573 216.162 268.527 216.107C268.482 216.052 268.424 216.008 268.358 215.979C268.293 215.951 268.222 215.938 268.15 215.941H257.53C257.373 215.946 257.222 216.005 257.104 216.109C256.985 216.212 256.905 216.353 256.879 216.508C256.866 216.577 256.869 216.648 256.887 216.716C256.905 216.785 256.939 216.848 256.985 216.901C257.031 216.954 257.089 216.997 257.154 217.025C257.219 217.053 257.289 217.066 257.359 217.063Z" fill="url(#paint38_linear_3120_1671)" fill-opacity="0.16"/>
<path d="M257.017 219.189H267.637C267.794 219.182 267.944 219.122 268.062 219.02C268.18 218.917 268.26 218.777 268.289 218.623C268.304 218.553 268.302 218.48 268.285 218.411C268.267 218.341 268.234 218.277 268.187 218.222C268.141 218.167 268.083 218.124 268.017 218.095C267.951 218.067 267.88 218.053 267.808 218.057H257.22C257.063 218.062 256.912 218.121 256.794 218.224C256.675 218.327 256.596 218.468 256.569 218.623C256.554 218.69 256.555 218.76 256.571 218.827C256.587 218.894 256.617 218.957 256.66 219.011C256.703 219.065 256.757 219.109 256.819 219.14C256.881 219.171 256.948 219.187 257.017 219.189Z" fill="url(#paint39_linear_3120_1671)" fill-opacity="0.16"/>
<path d="M262.562 221.305H267.306C267.463 221.3 267.614 221.24 267.732 221.137C267.851 221.034 267.931 220.893 267.958 220.738C267.972 220.669 267.971 220.597 267.954 220.529C267.937 220.46 267.904 220.396 267.859 220.342C267.814 220.287 267.757 220.244 267.693 220.214C267.628 220.185 267.558 220.171 267.487 220.172H262.744C262.587 220.179 262.438 220.239 262.319 220.342C262.201 220.444 262.121 220.584 262.092 220.738C262.078 220.808 262.079 220.879 262.096 220.948C262.113 221.017 262.145 221.08 262.19 221.135C262.236 221.189 262.293 221.233 262.357 221.262C262.421 221.292 262.491 221.306 262.562 221.305Z" fill="url(#paint40_linear_3120_1671)" fill-opacity="0.16"/>
</g>
<g opacity="0.4">
<path d="M203.97 246.177H218.875C219.102 246.176 219.321 246.095 219.495 245.949C219.669 245.802 219.786 245.6 219.825 245.376C219.847 245.279 219.845 245.178 219.822 245.081C219.798 244.984 219.752 244.894 219.688 244.818C219.624 244.742 219.544 244.681 219.453 244.641C219.362 244.6 219.263 244.581 219.163 244.585H204.205C203.985 244.592 203.773 244.674 203.606 244.818C203.438 244.962 203.326 245.159 203.286 245.376C203.265 245.476 203.267 245.579 203.292 245.678C203.316 245.777 203.364 245.868 203.43 245.946C203.496 246.023 203.579 246.085 203.673 246.125C203.767 246.165 203.868 246.183 203.97 246.177Z" fill="url(#paint41_linear_3120_1671)" fill-opacity="0.16"/>
<path d="M203.5 249.147H218.458C218.678 249.141 218.89 249.059 219.057 248.915C219.225 248.771 219.337 248.574 219.377 248.357C219.398 248.26 219.397 248.159 219.373 248.062C219.349 247.965 219.303 247.875 219.239 247.799C219.175 247.723 219.095 247.662 219.004 247.622C218.913 247.581 218.814 247.562 218.714 247.566H203.799C203.578 247.572 203.367 247.655 203.199 247.798C203.032 247.942 202.919 248.14 202.88 248.357C202.86 248.451 202.86 248.548 202.882 248.641C202.903 248.735 202.945 248.822 203.004 248.898C203.063 248.974 203.138 249.035 203.224 249.078C203.31 249.121 203.404 249.145 203.5 249.147Z" fill="url(#paint42_linear_3120_1671)" fill-opacity="0.16"/>
<path d="M203.03 252.118H217.988C218.208 252.111 218.42 252.029 218.587 251.885C218.755 251.741 218.868 251.544 218.907 251.327C218.928 251.23 218.927 251.129 218.903 251.032C218.879 250.935 218.834 250.845 218.77 250.769C218.706 250.693 218.625 250.632 218.534 250.592C218.443 250.551 218.344 250.532 218.244 250.536H203.286C203.066 250.543 202.854 250.625 202.687 250.769C202.519 250.913 202.407 251.11 202.368 251.327C202.346 251.424 202.348 251.525 202.371 251.622C202.395 251.719 202.441 251.809 202.505 251.885C202.569 251.961 202.649 252.022 202.74 252.062C202.831 252.103 202.931 252.122 203.03 252.118Z" fill="url(#paint43_linear_3120_1671)" fill-opacity="0.16"/>
<path d="M210.808 255.099H217.464C217.686 255.09 217.898 255.006 218.065 254.86C218.232 254.714 218.344 254.516 218.383 254.297C218.404 254.2 218.403 254.099 218.379 254.002C218.356 253.906 218.31 253.816 218.246 253.739C218.182 253.663 218.101 253.602 218.01 253.562C217.919 253.522 217.82 253.503 217.721 253.507H211.054C210.834 253.515 210.623 253.598 210.456 253.741C210.289 253.885 210.176 254.081 210.135 254.297C210.116 254.396 210.119 254.497 210.144 254.594C210.169 254.691 210.216 254.782 210.28 254.858C210.345 254.935 210.426 254.997 210.517 255.038C210.608 255.08 210.708 255.1 210.808 255.099Z" fill="url(#paint44_linear_3120_1671)" fill-opacity="0.16"/>
</g>
<g opacity="0.5">
<path opacity="0.4" d="M207.518 204.007H217.69C217.842 204.004 217.988 203.948 218.103 203.848C218.218 203.749 218.295 203.612 218.32 203.462C218.335 203.396 218.334 203.327 218.318 203.261C218.302 203.195 218.271 203.133 218.228 203.081C218.185 203.028 218.13 202.986 218.068 202.958C218.007 202.93 217.939 202.916 217.871 202.917H207.679C207.527 202.922 207.382 202.979 207.267 203.078C207.152 203.177 207.075 203.313 207.048 203.462C207.033 203.53 207.034 203.601 207.051 203.669C207.068 203.737 207.101 203.8 207.147 203.853C207.192 203.905 207.25 203.947 207.314 203.974C207.379 204.001 207.449 204.012 207.518 204.007Z" fill="url(#paint45_linear_3120_1671)" fill-opacity="0.16"/>
<path opacity="0.4" d="M207.187 206.037H217.38C217.531 206.032 217.677 205.975 217.791 205.876C217.906 205.777 217.983 205.641 218.01 205.492C218.025 205.425 218.024 205.355 218.008 205.288C217.991 205.221 217.96 205.159 217.915 205.106C217.871 205.054 217.815 205.012 217.752 204.984C217.688 204.957 217.62 204.944 217.551 204.947H207.369C207.217 204.95 207.07 205.006 206.955 205.106C206.84 205.205 206.763 205.342 206.738 205.492C206.724 205.559 206.725 205.627 206.741 205.694C206.756 205.76 206.787 205.821 206.83 205.874C206.874 205.926 206.928 205.968 206.99 205.996C207.052 206.025 207.119 206.039 207.187 206.037Z" fill="url(#paint46_linear_3120_1671)" fill-opacity="0.16"/>
<path opacity="0.4" d="M212.508 208.067H217.059C217.211 208.062 217.356 208.005 217.471 207.906C217.586 207.807 217.663 207.671 217.69 207.522C217.703 207.456 217.7 207.387 217.683 207.321C217.666 207.256 217.634 207.195 217.59 207.144C217.545 207.092 217.49 207.052 217.428 207.025C217.366 206.998 217.298 206.985 217.23 206.988H212.679C212.529 206.992 212.385 207.048 212.27 207.145C212.156 207.242 212.078 207.375 212.049 207.522C212.036 207.589 212.038 207.658 212.056 207.724C212.073 207.79 212.105 207.852 212.149 207.904C212.193 207.956 212.248 207.998 212.31 208.026C212.372 208.054 212.44 208.068 212.508 208.067Z" fill="url(#paint47_linear_3120_1671)" fill-opacity="0.16"/>
</g>
<path d="M197.635 375.402L198.276 385.178C198.276 385.178 204.099 387.208 207.892 385.178L208.896 375.145" fill="url(#paint48_linear_3120_1671)"/>
<path d="M221.364 393.383H197.25C197.124 391.8 197.149 390.208 197.325 388.629C197.488 387.445 197.808 386.288 198.276 385.188C201.457 385.749 204.711 385.749 207.892 385.188C207.892 385.188 215.691 387.539 218.789 389.313C221.097 390.68 221.471 392.55 221.364 393.383Z" fill="black"/>
<path d="M146.106 371.449L143.467 380.199C143.467 380.199 147.164 383.96 151.779 383.212L156.245 372.528" fill="url(#paint49_linear_3120_1671)"/>
<path d="M160.572 393.351H160.347H150.839H150.379C147.932 391.139 138.904 383.49 139.065 383.03C139.666 381.664 140.407 380.365 141.276 379.152C142.15 377.896 143.311 376.867 144.663 376.15C147.143 378.114 150.161 379.28 153.317 379.494C153.317 379.494 155.678 385.776 157.014 386.973C158.563 387.154 162.292 389.216 160.572 393.351Z" fill="black"/>
<path d="M208.854 381.15C201.065 383.287 197.208 380.722 197.208 380.722C197.208 380.722 194.943 344.963 194.804 338.477C194.644 331.447 195.167 325.4 195.167 325.4C191.887 319.385 187.56 301.97 187.56 301.97C187.56 301.97 186.043 308.145 184.419 314.192C183.351 318.178 182.282 322.109 181.459 324.203C179.248 330.208 156.021 377.902 156.021 377.902C146.49 377.004 144.984 373.981 144.984 373.981C144.984 373.981 151.223 352.89 156.106 339.054C158.418 332.172 161.093 325.418 164.119 318.819L167.837 282.012C167.837 282.012 165.914 276.958 166.128 272.994C166.374 268.411 169.493 260.953 169.493 260.953L202.101 259.319L205.702 265.729C205.702 265.729 212.593 315.752 213.085 323.349C213.576 330.945 208.854 381.15 208.854 381.15Z" fill="black"/>
<path d="M212.433 175.63C212.284 177.607 211.311 180.117 210.809 183.109C210.37 185.651 209.594 188.123 208.502 190.46C207.337 192.8 206.044 194.562 204.655 194.872C201.835 195.513 191.92 192.586 189.163 181.816C185.894 169.091 195.082 165.64 199.591 166.281C204.1 166.923 212.946 168.867 212.433 175.63Z" fill="url(#paint50_linear_3120_1671)"/>
<path d="M200.669 188.633C199.741 191.807 199.143 195.069 198.885 198.366C198.885 198.366 190.263 199.808 185.604 197.297C185.604 197.297 190.444 187.447 190.947 178.857" fill="#E9CDB2"/>
<path d="M169.034 220.204C169.034 220.204 165.573 232.267 166.032 236.829C166.192 238.474 176.332 242.887 176.332 242.887L178.244 225.653L169.034 220.204Z" fill="url(#paint51_linear_3120_1671)"/>
<path d="M177.795 228.613H177.133C174.994 228.485 172.882 228.076 170.85 227.395C169.441 226.946 168.1 226.306 166.865 225.493C168.204 219.509 169.968 213.629 172.143 207.896L177.795 228.613Z" fill="#00AEEF"/>
<g style="mix-blend-mode:multiply" opacity="0.2">
<path d="M177.09 228.57C174.951 228.442 172.839 228.033 170.808 227.352C171.363 223.677 171.876 218.623 171.876 218.623L173.019 220.183L177.09 228.57Z" fill="black"/>
</g>
<path d="M206.172 263.454C206.31 264.257 206.146 265.082 205.713 265.772C192.401 262.001 179.548 281.617 164.301 269.18C163.682 268.667 168.714 259.864 171.342 244.81C172.116 239.223 172.498 233.59 172.485 227.95C172.667 219.809 170.445 212.426 172.122 207.982C174.312 202.18 181.599 198.238 184.815 197.661C189.096 196.947 193.483 197.233 197.636 198.494C203.801 200.268 208.641 208.27 208.641 208.27C208.865 212.095 207.305 218.783 205.916 226.187C204.933 231.024 204.28 235.921 203.961 240.846V241.637C203.801 249.169 205.596 258.774 206.172 263.454Z" fill="#00AEEF"/>
<g style="mix-blend-mode:multiply" opacity="0.2">
<path d="M205.937 226.145C204.954 230.981 204.301 235.878 203.982 240.803V241.594L203.929 241.743L197.518 219.852L200.723 220.172L205.937 226.145Z" fill="black"/>
</g>
<path d="M240.938 217.672C240.938 217.672 241.526 215.834 241.772 214.787C242.018 213.74 242.156 212.597 242.52 212.65C242.883 212.704 243.332 213.356 243.513 214.157C243.615 215.005 243.615 215.862 243.513 216.71L240.938 217.672Z" fill="url(#paint52_linear_3120_1671)"/>
<path d="M249.955 213.676C249.428 213.81 248.921 214.014 248.449 214.285C247.53 214.68 246.558 215.065 246.558 215.065L244.421 216.433C244.834 215.987 245.276 215.569 245.746 215.183C246.472 214.574 247.145 214.061 247.305 213.901C248.427 212.832 247.658 212.106 247.006 212.469C246.355 212.832 244.869 213.591 244.346 213.965C243.523 214.606 241.589 216.561 241.44 216.732C241.29 216.903 238.993 221.614 238.512 222.245C237.791 222.951 236.979 223.559 236.098 224.05C230.371 226.454 218.779 231.123 218.779 231.123L214.259 221.785L201.438 224.627C201.438 224.627 210.445 240.792 213.191 242.63C219.142 246.658 235.542 229.809 240.735 226.999C242.046 226.441 243.284 225.723 244.421 224.862C244.943 224.327 245.338 223.681 245.575 222.971L246.077 221.903C246.077 221.903 246.194 223.42 246.322 224.093C246.451 224.766 247.124 225.076 247.391 224.82C247.558 224.192 247.652 223.546 247.669 222.897C247.823 222.044 247.88 221.177 247.84 220.311C247.637 220.033 247.06 219.243 247.06 219.243C247.06 219.243 247.156 218.762 246.931 218.591C246.636 218.337 246.305 218.128 245.949 217.971L247.711 216.561C247.711 216.561 248.406 216.166 249.432 215.492C250.457 214.819 250.308 213.74 249.955 213.676Z" fill="url(#paint53_linear_3120_1671)"/>
<path d="M196.044 212.084C195.392 218.623 202.358 230.322 202.358 230.322C207.299 229.209 211.87 226.839 215.628 223.441C215.628 223.441 210.991 211.625 208.64 208.27C206.119 204.659 196.695 205.578 196.044 212.084Z" fill="#00AEEF"/>
<path d="M215.606 174.433C216.46 172.147 215.958 169.636 211.813 169.551C206.984 161.431 197.635 163.14 194.718 163.899C186.972 165.769 182.966 174.519 183.788 180.993C184.793 188.472 186.801 189.765 187.56 190.801C188.318 191.838 194.601 193.387 197.753 191.87C198.821 191.368 201.898 182.147 202.251 181.186C202.308 180.94 202.425 180.712 202.592 180.523C202.93 180.322 203.331 180.257 203.714 180.342H203.971C203.917 181.293 204.056 182.479 205.199 182.211C206.145 181.861 206.913 181.15 207.336 180.235C212.839 179.134 215.072 175.929 215.606 174.433Z" fill="#192139"/>
<path d="M205.264 181.987C205.264 181.987 205.264 178.258 202.561 178.782C200.147 179.22 199.644 186.164 201.877 186.667C204.11 187.169 205.446 184.84 205.264 181.987Z" fill="url(#paint54_linear_3120_1671)"/>
<path d="M185.134 172.564C185.134 172.564 174.45 187.19 178.083 197.287C179.621 201.56 198.864 206.561 203.885 198.804C199.611 197.49 200.765 185.417 200.765 185.417L185.134 172.564Z" fill="#192139"/>
<path style="mix-blend-mode:multiply" opacity="0.5" d="M187.56 302.002C187.56 302.002 186.042 308.177 184.418 314.225V291.125L187.56 302.002Z" fill="url(#paint55_linear_3120_1671)"/>
<path d="M73.7097 375.722L73.3037 385.84C73.3037 385.84 77.6842 387.689 81.1138 385.84L83.6673 376.224" fill="url(#paint56_linear_3120_1671)"/>
<path d="M42.9717 372.378L40.4502 384.409C40.4502 384.409 45.3115 386.802 49.115 385.167L52.2455 375.177" fill="url(#paint57_linear_3120_1671)"/>
<path d="M71.915 393.511H93.2832C93.3449 393.512 93.406 393.5 93.4621 393.474C93.5182 393.449 93.568 393.411 93.6078 393.364C93.6477 393.317 93.6766 393.262 93.6926 393.202C93.7085 393.143 93.711 393.08 93.6999 393.02C93.4969 392.144 92.2469 390.744 89.8216 389.494C87.3963 388.244 81.1354 385.797 81.1354 385.797C78.5468 386.234 75.9032 386.234 73.3146 385.797C72.5328 386.662 72.0171 387.734 71.8295 388.885C71.688 390.426 71.7167 391.977 71.915 393.511Z" fill="black"/>
<path d="M110.485 210.215L125.998 232.897C125.998 232.897 127.612 239.468 120.101 238.645C112.59 237.822 101.232 219.339 101.232 219.339" fill="url(#paint58_linear_3120_1671)"/>
<path d="M115.933 217.693C113.044 222.019 109.249 225.664 104.811 228.377L94.1805 218.11L93.8813 194.669C93.8813 194.669 99.9286 197.137 106.072 204.381C109.615 208.623 112.908 213.068 115.933 217.693Z" fill="white"/>
<path style="mix-blend-mode:multiply" opacity="0.2" d="M104.416 210.77L107.685 218.089L101.2 216.839L104.416 210.77Z" fill="black"/>
<path d="M63.5061 254.693C63.5061 254.693 55.9204 278.091 53.3776 298.765C50.8348 319.438 51.7856 314.641 50.9523 319.962C50.1937 324.748 49.0185 331.64 46.8068 341.576C44.5952 351.512 41.2725 379.056 41.2725 379.056C44.3448 380.272 47.6685 380.716 50.9523 380.349C50.9523 380.349 63.2283 348.788 64.9485 339.899C66.0744 333.727 66.8308 327.495 67.2135 321.233C67.2135 321.233 76.5301 302.536 80.1734 289.053L82.1393 288.497L81.7546 325.347C81.7546 325.347 75.8036 338.83 74.8313 349.835C73.859 360.839 73.3035 380.733 73.3035 380.733C73.3035 380.733 80.3123 382.87 82.6948 381.214C82.6948 381.214 94.5756 335.849 97.4496 324.46C100.324 313.071 104.928 287.066 105.196 281.82C106.264 263.475 103.636 255.643 103.636 255.643L63.5061 254.693Z" fill="black"/>
<path d="M49.2436 384.761C46.3187 385.084 43.3593 384.863 40.5147 384.109L39.9698 385.797C39.9698 385.797 35.9846 387.165 34.4568 388.81C32.1383 391.321 33.164 393.511 33.164 393.511H50.4509C50.9386 390.54 50.5178 387.49 49.2436 384.761Z" fill="black"/>
<path d="M104.053 254.351C103.808 256.487 102.664 256.968 102.664 256.968C102.664 256.968 94.2879 261.338 62.93 256.541C62.93 256.541 61.8082 256.327 62.2356 254.254C63.4126 248.817 63.915 243.255 63.7313 237.694C63.673 236.264 63.4251 234.849 62.9941 233.484C61.8296 230.194 60.1201 225.578 58.7205 220.792C56.979 215.012 55.6541 208.986 56.1777 204.766C57.2461 196.069 72.4496 192.404 72.4496 192.404L85.4629 192.286C85.4629 192.286 96.8949 193.44 102.301 201.571C106.457 207.843 104.438 229.35 103.487 243.869C103.145 248.1 104.331 251.893 104.053 254.351Z" fill="white"/>
<path style="mix-blend-mode:multiply" opacity="0.2" d="M67.6517 219.253L65.3118 237.694H63.7306C63.6722 236.264 63.4243 234.849 62.9934 233.485C61.8288 230.194 60.1193 225.578 58.7197 220.792L67.6517 219.253Z" fill="black"/>
<path d="M90.9543 163.108C90.9543 163.108 93.0911 171.207 89.9607 172.724C87.4072 173.963 87.1828 170.341 87.1828 170.341L86.5845 166.388" fill="#192139"/>
<path d="M72.3848 192.383C72.3848 192.383 74.5216 197.885 82.5881 197.105C89.6076 196.421 85.4087 192.276 85.4087 192.276C85.4087 192.276 85.0454 191.207 84.5967 189.701C84.148 188.195 83.6458 186.496 83.3253 185.096L80.5154 182.799L74.5643 177.916C74.5643 177.916 75.355 188.526 72.3848 192.383Z" fill="url(#paint59_linear_3120_1671)"/>
<path style="mix-blend-mode:multiply" d="M76.894 182.852C76.894 182.852 79.33 188.034 84.6187 189.701C84.1806 188.259 83.6678 186.496 83.3472 185.096L80.5373 182.799L76.894 182.852Z" fill="url(#paint60_linear_3120_1671)"/>
<path d="M89.7469 167.841C89.7469 167.841 93.1231 184.103 88.4114 186.613C88.4114 186.613 83.0693 188.611 77.4708 184.081C75.8774 182.755 74.5597 181.129 73.5925 179.295C71.9792 176.335 69.3189 170.747 69.9065 166.912C70.6971 161.42 86.4455 155.704 89.7469 167.841Z" fill="url(#paint61_linear_3120_1671)"/>
<path d="M77.4817 175.224C77.4817 175.224 76.5202 172.232 74.4368 173.087C71.6802 174.241 74.7145 181.293 77.4283 179.337" fill="url(#paint62_linear_3120_1671)"/>
<path d="M68.8597 162.435C72.3855 155.448 78.8814 158.781 86.1573 158.076C88.6361 155.704 91.2216 155.576 92.5678 156.26C94.3841 157.2 94.288 160.811 94.1277 162.339C93.1448 171.955 82.5888 171.185 79.5118 170.758C79.4398 171.463 79.1938 172.138 78.796 172.724C78.305 173.343 77.6202 173.78 76.8515 173.963C76.6825 173.667 76.4449 173.415 76.1586 173.229C75.8724 173.043 75.5458 172.929 75.2061 172.895C74.9414 172.894 74.6794 172.949 74.4368 173.055C74.1657 173.173 73.9297 173.358 73.7519 173.594C73.574 173.83 73.4603 174.108 73.4219 174.401C73.3268 175.92 73.7989 177.42 74.7467 178.611C74.7467 180.748 74.6185 182.543 74.6078 183.803C73.7691 182.407 72.8523 181.058 71.862 179.765C70.4586 178.024 69.3735 176.049 68.6567 173.931C67.9729 172.916 63.8916 165.747 68.8597 162.435Z" fill="#192139"/>
<path d="M104.096 248.87L81.0394 248.229C80.7794 248.222 80.5246 248.155 80.2955 248.032C80.0664 247.909 79.8694 247.734 79.7207 247.521C79.5719 247.307 79.4754 247.062 79.4391 246.804C79.4028 246.547 79.4276 246.285 79.5115 246.038L90.1957 214.381C90.3919 213.799 90.7697 213.295 91.2735 212.943C91.7773 212.591 92.3806 212.41 92.9949 212.426L116.051 213.078C116.305 213.087 116.553 213.153 116.777 213.273C117.001 213.393 117.194 213.563 117.342 213.77C117.489 213.976 117.588 214.214 117.629 214.465C117.67 214.715 117.653 214.972 117.579 215.215L106.895 246.872C106.706 247.462 106.332 247.976 105.827 248.336C105.323 248.696 104.715 248.883 104.096 248.87Z" fill="#15162B"/>
<path d="M94.6613 231.423C94.4689 230.92 93.4326 231.123 93.1334 231.23C92.8343 231.337 92.471 231.508 91.9154 231.743L91.4988 231.925C92.3428 231.423 92.9304 231.081 92.7274 230.557C92.5244 230.034 91.5094 230.247 91.1996 230.365C90.8898 230.482 90.5479 230.643 89.9923 230.878L87.3426 232.021C86.1033 232.213 84.6075 232.63 84.6075 232.566C84.6716 232.117 84.9601 231.561 85.0562 231.059C85.1524 230.557 86.0071 228.794 85.537 228.207C85.0669 227.619 84.6289 227.811 84.2122 228.666C83.6289 229.599 82.9367 230.46 82.1501 231.23C81.7121 231.722 81.6587 232.224 81.0817 232.908C80.4544 233.588 79.6345 234.062 78.7312 234.265C77.6628 234.51 67.6411 234.884 60.6964 235.087C62.1599 229.503 63.2733 223.833 64.0299 218.11L51.0166 213.174C51.0166 213.174 46.1446 242.449 47.7045 245.13C48.837 247.053 51.8072 247.972 54.8415 247.641C58.8801 247.203 67.4808 243.987 80.2163 240.387C82.2249 240.119 83.5391 239.884 86.1246 239.553C86.9071 239.447 87.6744 239.25 88.411 238.966H88.4751L88.6354 238.891C89.4528 238.539 90.2453 238.132 91.0073 237.673C92.1718 236.946 93.5608 236.038 93.3151 235.397C93.1975 235.087 92.7915 235.044 92.4069 235.077C93.4753 234.425 94.3621 233.859 94.1377 233.271C94.0416 233.025 93.7531 232.95 93.4433 232.94C94.2873 232.384 94.8215 231.967 94.6613 231.423Z" fill="url(#paint63_linear_3120_1671)"/>
<path d="M54.4465 203.003C56.0278 200.033 62.2673 196.646 62.2673 196.646L68.5496 211.422C68.6137 216.668 65.3444 230.354 65.3444 230.354C62.3116 230.48 59.2739 230.311 56.2735 229.852C53.6355 229.401 51.03 228.776 48.4741 227.982C48.4741 227.982 50.6109 210.193 54.4465 203.003Z" fill="white"/>
<path d="M154.632 174.371L116.034 179.22C113.259 179.568 111.292 182.101 111.64 184.876L112.378 190.749C112.727 193.524 115.259 195.491 118.034 195.142L156.632 190.294C159.407 189.945 161.374 187.413 161.025 184.638L160.288 178.765C159.939 175.99 157.407 174.022 154.632 174.371Z" fill="white"/>
<path d="M120.704 182.422L117.545 182.819C116.082 183.003 115.044 184.339 115.228 185.802L115.625 188.961C115.809 190.425 117.144 191.462 118.608 191.279L121.767 190.882C123.231 190.698 124.268 189.362 124.084 187.899L123.687 184.74C123.504 183.276 122.168 182.238 120.704 182.422Z" fill="#00AEEF"/>
<path d="M154.963 180.801L126.33 184.391C126.275 184.4 126.219 184.398 126.165 184.384C126.111 184.37 126.06 184.346 126.016 184.312C125.972 184.277 125.935 184.235 125.908 184.186C125.882 184.137 125.865 184.083 125.86 184.028C125.851 183.916 125.884 183.806 125.954 183.718C126.023 183.631 126.123 183.574 126.234 183.558L154.867 179.968C154.922 179.96 154.978 179.964 155.031 179.978C155.085 179.992 155.135 180.017 155.178 180.051C155.222 180.085 155.259 180.127 155.286 180.175C155.313 180.223 155.331 180.276 155.337 180.331C155.345 180.387 155.341 180.443 155.326 180.497C155.311 180.551 155.285 180.602 155.251 180.646C155.216 180.69 155.172 180.726 155.123 180.753C155.074 180.779 155.019 180.796 154.963 180.801Z" fill="#00AEEF"/>
<path d="M138.455 184.947L126.585 186.432C126.53 186.441 126.474 186.438 126.42 186.425C126.366 186.411 126.315 186.386 126.271 186.352C126.227 186.318 126.191 186.275 126.164 186.227C126.137 186.178 126.12 186.124 126.115 186.068C126.106 185.957 126.14 185.847 126.209 185.759C126.279 185.672 126.379 185.614 126.489 185.598L138.359 184.113C138.414 184.106 138.47 184.109 138.523 184.123C138.577 184.138 138.627 184.163 138.67 184.196C138.714 184.23 138.751 184.272 138.778 184.32C138.805 184.369 138.823 184.422 138.829 184.476C138.837 184.532 138.833 184.589 138.818 184.643C138.803 184.697 138.777 184.747 138.743 184.791C138.708 184.835 138.664 184.871 138.615 184.898C138.566 184.925 138.511 184.941 138.455 184.947Z" fill="#00AEEF"/>
<path d="M155.219 182.842L140.155 184.733C140.1 184.74 140.044 184.737 139.991 184.723C139.937 184.708 139.887 184.683 139.844 184.65C139.8 184.616 139.763 184.574 139.736 184.526C139.709 184.477 139.691 184.424 139.685 184.37C139.676 184.315 139.678 184.258 139.692 184.204C139.705 184.15 139.73 184.1 139.764 184.055C139.798 184.011 139.841 183.975 139.89 183.948C139.938 183.921 139.992 183.905 140.048 183.899L155.112 182.008C155.167 182.001 155.223 182.004 155.276 182.019C155.33 182.033 155.38 182.058 155.424 182.091C155.467 182.125 155.504 182.167 155.531 182.216C155.559 182.264 155.576 182.317 155.583 182.372C155.59 182.426 155.587 182.482 155.572 182.536C155.558 182.589 155.533 182.639 155.499 182.683C155.466 182.727 155.423 182.763 155.375 182.79C155.327 182.818 155.274 182.835 155.219 182.842Z" fill="#00AEEF"/>
<path d="M142.323 186.538L126.874 188.483C126.762 188.495 126.65 188.463 126.562 188.393C126.474 188.323 126.417 188.221 126.404 188.109C126.395 187.998 126.428 187.887 126.498 187.8C126.567 187.712 126.667 187.655 126.778 187.639L142.259 185.694C142.314 185.689 142.369 185.694 142.422 185.709C142.475 185.725 142.524 185.751 142.567 185.786C142.61 185.82 142.645 185.863 142.671 185.912C142.697 185.96 142.713 186.014 142.719 186.068C142.727 186.183 142.691 186.296 142.617 186.384C142.543 186.472 142.438 186.528 142.323 186.538Z" fill="#00AEEF"/>
<path d="M128.499 193.847H128.381C128.381 193.847 128.691 192.97 128.969 191.988C129.395 191.334 129.703 190.611 129.877 189.851C129.877 188.002 128.456 189.274 127.676 190.107C125.646 191.827 124.204 193.387 124.204 195.086C124.204 198.291 124.097 200.855 124.097 200.866C121.394 208.58 115.934 224.286 115.934 224.286L125.657 236.594C125.657 236.594 127.644 233.282 128.349 217.64C128.658 212.545 129.312 207.476 130.304 202.469C131.57 200.995 132.647 199.369 133.509 197.629C134.001 196.924 134.439 196.283 134.663 195.983C135.179 195.043 135.539 194.026 135.732 192.97L128.499 193.847Z" fill="url(#paint64_linear_3120_1671)"/>
<path d="M306.047 121.782H252.093C249.296 121.782 247.028 124.049 247.028 126.846V137.691C247.028 140.488 249.296 142.755 252.093 142.755H306.047C308.844 142.755 311.112 140.488 311.112 137.691V126.846C311.112 124.049 308.844 121.782 306.047 121.782Z" fill="white"/>
<path d="M259.998 126.697H254.197C252.722 126.697 251.526 127.893 251.526 129.368V135.169C251.526 136.644 252.722 137.84 254.197 137.84H259.998C261.474 137.84 262.669 136.644 262.669 135.169V129.368C262.669 127.893 261.474 126.697 259.998 126.697Z" fill="url(#paint65_linear_3120_1671)"/>
<path d="M303.889 130.148H266.196C266.045 130.148 265.901 130.088 265.795 129.982C265.689 129.876 265.629 129.732 265.629 129.581C265.629 129.431 265.689 129.287 265.795 129.181C265.901 129.075 266.045 129.015 266.196 129.015H303.889C304.039 129.015 304.183 129.075 304.29 129.181C304.396 129.287 304.456 129.431 304.456 129.581C304.456 129.732 304.396 129.876 304.29 129.982C304.183 130.088 304.039 130.148 303.889 130.148Z" fill="url(#paint66_linear_3120_1671)"/>
<path d="M281.795 132.829H266.196C266.122 132.831 266.049 132.818 265.98 132.79C265.911 132.763 265.849 132.722 265.796 132.671C265.743 132.619 265.701 132.557 265.673 132.489C265.644 132.421 265.629 132.348 265.629 132.274C265.628 132.199 265.642 132.125 265.67 132.055C265.698 131.986 265.739 131.923 265.792 131.87C265.845 131.817 265.908 131.776 265.977 131.748C266.047 131.72 266.121 131.706 266.196 131.708H281.795C281.868 131.708 281.942 131.722 282.01 131.751C282.078 131.779 282.14 131.821 282.191 131.874C282.243 131.927 282.284 131.989 282.311 132.058C282.338 132.127 282.352 132.2 282.35 132.274C282.35 132.421 282.292 132.563 282.187 132.667C282.083 132.771 281.942 132.829 281.795 132.829Z" fill="url(#paint67_linear_3120_1671)"/>
<path d="M303.889 132.829H284.07C283.996 132.831 283.923 132.818 283.854 132.79C283.786 132.763 283.723 132.722 283.67 132.671C283.618 132.619 283.576 132.557 283.547 132.489C283.519 132.421 283.504 132.348 283.504 132.274C283.504 132.124 283.564 131.98 283.67 131.873C283.776 131.767 283.92 131.708 284.07 131.708H303.889C304.039 131.708 304.183 131.767 304.29 131.873C304.396 131.98 304.455 132.124 304.455 132.274C304.455 132.348 304.441 132.421 304.412 132.489C304.384 132.557 304.342 132.619 304.289 132.671C304.236 132.722 304.174 132.763 304.105 132.79C304.036 132.818 303.963 132.831 303.889 132.829Z" fill="url(#paint68_linear_3120_1671)"/>
<path d="M286.56 135.522H266.196C266.045 135.522 265.901 135.462 265.795 135.356C265.689 135.25 265.629 135.106 265.629 134.956C265.629 134.805 265.689 134.661 265.795 134.555C265.901 134.449 266.045 134.389 266.196 134.389H286.56C286.633 134.389 286.707 134.404 286.775 134.433C286.843 134.461 286.905 134.503 286.956 134.556C287.008 134.608 287.049 134.671 287.076 134.74C287.103 134.808 287.117 134.882 287.115 134.956C287.117 135.029 287.103 135.103 287.076 135.171C287.049 135.24 287.008 135.303 286.956 135.355C286.905 135.408 286.843 135.45 286.775 135.479C286.707 135.507 286.633 135.522 286.56 135.522Z" fill="url(#paint69_linear_3120_1671)"/>
<path d="M513.888 70.532H459.741C455.905 70.532 452.796 73.6412 452.796 77.4767V130.139C452.796 133.974 455.905 137.083 459.741 137.083H513.888C517.723 137.083 520.832 133.974 520.832 130.139V77.4767C520.832 73.6412 517.723 70.532 513.888 70.532Z" fill="url(#paint70_linear_3120_1671)"/>
<path d="M497.05 95.9283H467.391C465.67 95.9283 464.019 95.2454 462.801 94.0295C461.583 92.8135 460.897 91.164 460.895 89.443C460.89 88.5873 461.055 87.7391 461.38 86.9473C461.704 86.1555 462.182 85.4356 462.786 84.829C463.389 84.2224 464.107 83.741 464.897 83.4125C465.687 83.0841 466.535 82.915 467.391 82.915H497.05C498.77 82.915 500.419 83.5983 501.635 84.8145C502.852 86.0307 503.535 87.6803 503.535 89.4003C503.541 90.2555 503.377 91.1035 503.054 91.8952C502.73 92.687 502.253 93.407 501.651 94.0137C501.048 94.6205 500.331 95.102 499.541 95.4306C498.752 95.7592 497.905 95.9283 497.05 95.9283Z" stroke="white" stroke-width="0.5" stroke-miterlimit="10"/>
<path d="M506.217 116.784H476.59C474.867 116.784 473.215 116.099 471.996 114.881C470.778 113.663 470.094 112.01 470.094 110.288C470.097 108.567 470.782 106.917 472 105.701C473.218 104.485 474.869 103.802 476.59 103.802H506.217C507.938 103.802 509.588 104.485 510.806 105.701C512.024 106.917 512.71 108.567 512.713 110.288C512.713 112.01 512.028 113.663 510.81 114.881C509.592 116.099 507.94 116.784 506.217 116.784Z" stroke="white" stroke-width="0.5" stroke-miterlimit="10"/>
<path d="M498.128 86.9109H467.828C467.62 86.9109 467.42 86.8291 467.272 86.6831C467.124 86.5372 467.04 86.3388 467.037 86.131C467.037 85.9213 467.12 85.7202 467.269 85.5719C467.417 85.4236 467.618 85.3403 467.828 85.3403H498.128C498.336 85.3431 498.534 85.4277 498.68 85.5756C498.826 85.7236 498.908 85.9231 498.908 86.131C498.908 86.2334 498.888 86.3348 498.848 86.4294C498.809 86.5241 498.752 86.61 498.679 86.6825C498.607 86.7549 498.521 86.8123 498.426 86.8515C498.332 86.8907 498.23 86.9109 498.128 86.9109Z" fill="white"/>
<path d="M498.128 90.1801H467.828C467.724 90.1815 467.622 90.1624 467.526 90.1238C467.43 90.0853 467.343 90.0281 467.269 89.9555C467.196 89.8829 467.137 89.7965 467.097 89.7011C467.058 89.6058 467.037 89.5035 467.037 89.4002C467.04 89.1923 467.124 88.994 467.272 88.848C467.42 88.7021 467.62 88.6202 467.828 88.6202H498.128C498.23 88.6202 498.332 88.6404 498.426 88.6796C498.521 88.7188 498.607 88.7762 498.679 88.8487C498.752 88.9211 498.809 89.0071 498.848 89.1017C498.888 89.1963 498.908 89.2978 498.908 89.4002C498.908 89.5026 498.888 89.604 498.848 89.6986C498.809 89.7933 498.752 89.8793 498.679 89.9517C498.607 90.0241 498.521 90.0816 498.426 90.1208C498.332 90.16 498.23 90.1801 498.128 90.1801Z" fill="white"/>
<path d="M482.187 93.4603H467.828C467.62 93.4604 467.42 93.3785 467.272 93.2326C467.124 93.0866 467.04 92.8882 467.037 92.6804C467.037 92.4707 467.12 92.2696 467.269 92.1213C467.417 91.9731 467.618 91.8898 467.828 91.8898H482.187C482.397 91.8898 482.598 91.9731 482.746 92.1213C482.895 92.2696 482.978 92.4707 482.978 92.6804C482.975 92.8882 482.89 93.0866 482.743 93.2326C482.595 93.3785 482.395 93.4604 482.187 93.4603Z" fill="white"/>
<path d="M475.787 107.798H506.098C506.305 107.798 506.503 107.716 506.649 107.57C506.795 107.424 506.878 107.225 506.878 107.018C506.878 106.812 506.795 106.613 506.649 106.467C506.503 106.321 506.305 106.238 506.098 106.238H475.787C475.58 106.238 475.382 106.321 475.235 106.467C475.089 106.613 475.007 106.812 475.007 107.018C475.007 107.225 475.089 107.424 475.235 107.57C475.382 107.716 475.58 107.798 475.787 107.798Z" fill="white"/>
<path d="M487.22 111.078H506.099C506.307 111.076 506.505 110.991 506.651 110.843C506.797 110.695 506.879 110.496 506.879 110.288C506.879 110.081 506.797 109.883 506.651 109.736C506.505 109.59 506.306 109.508 506.099 109.508H487.22C487.014 109.508 486.815 109.59 486.669 109.736C486.523 109.883 486.441 110.081 486.441 110.288C486.439 110.391 486.458 110.494 486.497 110.589C486.535 110.685 486.593 110.773 486.665 110.846C486.738 110.92 486.824 110.978 486.919 111.018C487.015 111.058 487.117 111.078 487.22 111.078Z" fill="white"/>
<path d="M475.787 111.078H483.875C483.978 111.078 484.08 111.058 484.176 111.018C484.271 110.978 484.357 110.92 484.43 110.846C484.503 110.773 484.56 110.685 484.598 110.589C484.637 110.494 484.656 110.391 484.655 110.288C484.655 110.081 484.572 109.883 484.426 109.736C484.28 109.59 484.082 109.508 483.875 109.508H475.787C475.58 109.508 475.382 109.59 475.235 109.736C475.089 109.883 475.007 110.081 475.007 110.288C475.007 110.496 475.089 110.695 475.235 110.843C475.381 110.991 475.579 111.076 475.787 111.078Z" fill="white"/>
<path d="M491.728 114.348H506.098C506.305 114.348 506.504 114.265 506.65 114.119C506.796 113.973 506.878 113.774 506.878 113.568C506.878 113.36 506.797 113.16 506.651 113.012C506.505 112.864 506.306 112.78 506.098 112.777H491.728C491.625 112.777 491.523 112.797 491.427 112.837C491.332 112.877 491.246 112.936 491.173 113.009C491.1 113.083 491.043 113.17 491.005 113.266C490.966 113.362 490.947 113.464 490.948 113.568C490.948 113.774 491.03 113.973 491.177 114.119C491.323 114.265 491.521 114.348 491.728 114.348Z" fill="white"/>
<path d="M463.95 125.438C463.95 125.738 463.861 126.031 463.695 126.281C463.528 126.53 463.291 126.725 463.014 126.84C462.737 126.954 462.431 126.984 462.137 126.926C461.843 126.867 461.573 126.723 461.36 126.511C461.148 126.298 461.004 126.028 460.945 125.734C460.887 125.44 460.917 125.134 461.032 124.857C461.146 124.58 461.341 124.343 461.59 124.176C461.84 124.01 462.133 123.921 462.433 123.921C462.633 123.919 462.831 123.958 463.015 124.033C463.2 124.109 463.368 124.221 463.509 124.362C463.65 124.503 463.762 124.671 463.838 124.856C463.913 125.04 463.952 125.238 463.95 125.438Z" fill="white"/>
<path d="M470.071 125.438C470.071 125.738 469.982 126.031 469.816 126.281C469.649 126.53 469.412 126.725 469.135 126.839C468.858 126.954 468.553 126.984 468.258 126.926C467.964 126.867 467.694 126.723 467.481 126.511C467.269 126.298 467.125 126.028 467.066 125.734C467.008 125.439 467.038 125.134 467.153 124.857C467.267 124.58 467.462 124.343 467.711 124.176C467.961 124.01 468.254 123.921 468.554 123.921C468.753 123.921 468.951 123.96 469.135 124.036C469.319 124.112 469.486 124.224 469.627 124.365C469.768 124.506 469.88 124.673 469.956 124.857C470.032 125.041 470.071 125.239 470.071 125.438Z" fill="white"/>
<path d="M476.193 125.438C476.193 125.738 476.104 126.031 475.938 126.281C475.771 126.53 475.534 126.725 475.257 126.839C474.98 126.954 474.675 126.984 474.38 126.926C474.086 126.867 473.816 126.723 473.604 126.511C473.391 126.298 473.247 126.028 473.188 125.734C473.13 125.439 473.16 125.134 473.275 124.857C473.389 124.58 473.584 124.343 473.833 124.176C474.083 124.01 474.376 123.921 474.676 123.921C475.079 123.921 475.465 124.08 475.749 124.365C476.034 124.65 476.193 125.035 476.193 125.438Z" fill="white"/>
<path d="M490.38 180.673L453.99 166.185L417.589 180.673C417.589 180.673 415.815 231.957 453.99 245.216C492.164 231.946 490.38 180.673 490.38 180.673Z" fill="#CFEFFF"/>
<path d="M453.99 172.51L484.429 184.626C483.926 195.471 480.155 228.367 453.99 238.944C427.824 228.378 424.074 195.481 423.54 184.626L453.99 172.51ZM453.99 169.07L420.26 182.489C420.409 191.25 422.813 230.835 453.99 242.385C485.155 230.835 487.57 191.25 487.709 182.489L453.99 169.07Z" fill="url(#paint71_linear_3120_1671)" fill-opacity="0.16"/>
<path d="M431.991 199.669C431.991 199.669 448.167 210.45 453.936 225.493C453.936 225.493 469.46 185.962 490.391 172.51C490.391 172.51 470.091 176.527 452.109 209.819C452.109 209.819 444.192 200.503 431.991 199.669Z" fill="url(#paint72_linear_3120_1671)"/>
<path d="M28 394L551 394" stroke="#0066B2" stroke-linecap="round" stroke-linejoin="round"/>
<path d="M86.6807 144.614V141.943" stroke="white" stroke-width="2" stroke-linecap="round" stroke-linejoin="round"/>
<path d="M404.929 189.957V192.628" stroke="white" stroke-width="2" stroke-linecap="round" stroke-linejoin="round"/>
<path d="M86.6807 135.522V110.179C86.6807 101.942 89.9529 94.0418 95.7776 88.2171C101.602 82.3925 109.502 79.1202 117.739 79.1202H373.87C382.106 79.1231 390.005 82.3962 395.829 88.2203C401.653 94.0443 404.926 101.943 404.929 110.179V186.752M199.099 79.1202V154.892M328.559 79.1202V144.699" stroke="url(#paint73_linear_3120_1671)" stroke-width="2" stroke-linecap="round" stroke-linejoin="round" stroke-dasharray="5 6"/>
<defs>
<filter id="filter0_b_3120_1671" x="-63.8053" y="247.449" width="204.195" height="229.377" filterUnits="userSpaceOnUse" color-interpolation-filters="sRGB">
<feFlood flood-opacity="0" result="BackgroundImageFix"/>
<feGaussianBlur in="BackgroundImageFix" stdDeviation="41.7"/>
<feComposite in2="SourceAlpha" operator="in" result="effect1_backgroundBlur_3120_1671"/>
<feBlend mode="normal" in="SourceGraphic" in2="effect1_backgroundBlur_3120_1671" result="shape"/>
</filter>
<linearGradient id="paint0_linear_3120_1671" x1="5" y1="17.5893" x2="592.423" y2="105.397" gradientUnits="userSpaceOnUse">
<stop stop-color="#0066B2"/>
<stop offset="1" stop-color="#00AEEF"/>
</linearGradient>
<linearGradient id="paint1_linear_3120_1671" x1="7.54297" y1="282.763" x2="35.6168" y2="284.122" gradientUnits="userSpaceOnUse">
<stop stop-color="#0066B2"/>
<stop offset="1" stop-color="#00AEEF"/>
</linearGradient>
<linearGradient id="paint2_linear_3120_1671" x1="38.6953" y1="261.991" x2="62.2159" y2="262.586" gradientUnits="userSpaceOnUse">
<stop stop-color="#0066B2"/>
<stop offset="1" stop-color="#00AEEF"/>
</linearGradient>
<linearGradient id="paint3_linear_3120_1671" x1="19.5947" y1="333.643" x2="60.7042" y2="336.302" gradientUnits="userSpaceOnUse">
<stop stop-color="#0066B2"/>
<stop offset="1" stop-color="#00AEEF"/>
</linearGradient>
<linearGradient id="paint4_linear_3120_1671" x1="319.37" y1="356.936" x2="464.834" y2="436.428" gradientUnits="userSpaceOnUse">
<stop stop-color="#0066B2"/>
<stop offset="1" stop-color="#00AEEF"/>
</linearGradient>
<linearGradient id="paint5_linear_3120_1671" x1="492.559" y1="366.555" x2="492.559" y2="377.913" gradientUnits="userSpaceOnUse">
<stop stop-color="#71D2F9"/>
<stop offset="1" stop-color="#51B9F8"/>
</linearGradient>
<linearGradient id="paint6_linear_3120_1671" x1="319.37" y1="318.997" x2="464.834" y2="398.488" gradientUnits="userSpaceOnUse">
<stop stop-color="#0066B2"/>
<stop offset="1" stop-color="#00AEEF"/>
</linearGradient>
<linearGradient id="paint7_linear_3120_1671" x1="492.559" y1="328.627" x2="492.559" y2="339.984" gradientUnits="userSpaceOnUse">
<stop stop-color="#71D2F9"/>
<stop offset="1" stop-color="#51B9F8"/>
</linearGradient>
<linearGradient id="paint8_linear_3120_1671" x1="319.37" y1="281.057" x2="464.834" y2="360.549" gradientUnits="userSpaceOnUse">
<stop stop-color="#0066B2"/>
<stop offset="1" stop-color="#00AEEF"/>
</linearGradient>
<linearGradient id="paint9_linear_3120_1671" x1="492.559" y1="290.687" x2="492.559" y2="302.045" gradientUnits="userSpaceOnUse">
<stop stop-color="#71D2F9"/>
<stop offset="1" stop-color="#51B9F8"/>
</linearGradient>
<linearGradient id="paint10_linear_3120_1671" x1="319.37" y1="243.129" x2="464.834" y2="322.621" gradientUnits="userSpaceOnUse">
<stop stop-color="#0066B2"/>
<stop offset="1" stop-color="#00AEEF"/>
</linearGradient>
<linearGradient id="paint11_linear_3120_1671" x1="492.559" y1="252.748" x2="492.559" y2="264.105" gradientUnits="userSpaceOnUse">
<stop stop-color="#71D2F9"/>
<stop offset="1" stop-color="#51B9F8"/>
</linearGradient>
<linearGradient id="paint12_linear_3120_1671" x1="319.37" y1="205.189" x2="464.834" y2="284.681" gradientUnits="userSpaceOnUse">
<stop stop-color="#0066B2"/>
<stop offset="1" stop-color="#00AEEF"/>
</linearGradient>
<linearGradient id="paint13_linear_3120_1671" x1="462.345" y1="212.565" x2="462.345" y2="226.251" gradientUnits="userSpaceOnUse">
<stop stop-color="#71D2F9"/>
<stop offset="1" stop-color="#51B9F8"/>
</linearGradient>
<linearGradient id="paint14_linear_3120_1671" x1="492.559" y1="214.819" x2="492.559" y2="226.177" gradientUnits="userSpaceOnUse">
<stop stop-color="#71D2F9"/>
<stop offset="1" stop-color="#51B9F8"/>
</linearGradient>
<linearGradient id="paint15_linear_3120_1671" x1="318.687" y1="227.566" x2="318.687" y2="239.532" gradientUnits="userSpaceOnUse">
<stop stop-color="#F4CFB3"/>
<stop offset="1" stop-color="#F2BB9B"/>
</linearGradient>
<linearGradient id="paint16_linear_3120_1671" x1="339.873" y1="176.164" x2="339.873" y2="181.517" gradientUnits="userSpaceOnUse">
<stop stop-color="#F4CFB3"/>
<stop offset="1" stop-color="#F2BB9B"/>
</linearGradient>
<linearGradient id="paint17_linear_3120_1671" x1="338.313" y1="196.325" x2="338.313" y2="208.708" gradientUnits="userSpaceOnUse">
<stop stop-color="#283770"/>
<stop offset="1" stop-color="#141A5A"/>
</linearGradient>
<linearGradient id="paint18_linear_3120_1671" x1="346.507" y1="265.035" x2="346.871" y2="273.261" gradientUnits="userSpaceOnUse">
<stop stop-color="#F4CFB3"/>
<stop offset="1" stop-color="#F2BB9B"/>
</linearGradient>
<linearGradient id="paint19_linear_3120_1671" x1="342.758" y1="148.182" x2="342.758" y2="156.976" gradientUnits="userSpaceOnUse">
<stop stop-color="#6EC4F7"/>
<stop offset="1" stop-color="#398EF6"/>
</linearGradient>
<linearGradient id="paint20_linear_3120_1671" x1="362.021" y1="116.408" x2="356.518" y2="141.024" gradientUnits="userSpaceOnUse">
<stop stop-color="#F4CFB3"/>
<stop offset="1" stop-color="#F2BB9B"/>
</linearGradient>
<linearGradient id="paint21_linear_3120_1671" x1="359.873" y1="123.47" x2="349.424" y2="131.002" gradientUnits="userSpaceOnUse">
<stop stop-color="#F4CFB3"/>
<stop offset="1" stop-color="#F2BB9B"/>
</linearGradient>
<linearGradient id="paint22_linear_3120_1671" x1="354.874" y1="114.773" x2="349.361" y2="139.454" gradientUnits="userSpaceOnUse">
<stop stop-color="#F4CFB3"/>
<stop offset="1" stop-color="#F2BB9B"/>
</linearGradient>
<linearGradient id="paint23_linear_3120_1671" x1="361.251" y1="116.237" x2="355.749" y2="140.853" gradientUnits="userSpaceOnUse">
<stop stop-color="#F4CFB3"/>
<stop offset="1" stop-color="#F2BB9B"/>
</linearGradient>
<linearGradient id="paint24_linear_3120_1671" x1="372.16" y1="144.4" x2="372.16" y2="178.878" gradientUnits="userSpaceOnUse">
<stop stop-color="#6EC4F7"/>
<stop offset="1" stop-color="#398EF6"/>
</linearGradient>
<linearGradient id="paint25_linear_3120_1671" x1="294.72" y1="134.086" x2="356.714" y2="157.522" gradientUnits="userSpaceOnUse">
<stop stop-color="#F4CFB3"/>
<stop offset="1" stop-color="#F2BB9B"/>
</linearGradient>
<linearGradient id="paint26_linear_3120_1671" x1="313.526" y1="176.592" x2="319.67" y2="179.487" gradientUnits="userSpaceOnUse">
<stop stop-color="#F4CFB3"/>
<stop offset="1" stop-color="#F2BB9B"/>
</linearGradient>
<linearGradient id="paint27_linear_3120_1671" x1="325.139" y1="171.933" x2="328.312" y2="182.746" gradientUnits="userSpaceOnUse">
<stop stop-color="#F4CFB3"/>
<stop offset="1" stop-color="#F2BB9B"/>
</linearGradient>
<linearGradient id="paint28_linear_3120_1671" x1="234.945" y1="217.661" x2="234.945" y2="294.747" gradientUnits="userSpaceOnUse">
<stop stop-color="#8BBDF2"/>
<stop offset="1" stop-color="#92C2E8"/>
</linearGradient>
<linearGradient id="paint29_linear_3120_1671" x1="232.658" y1="258.966" x2="232.658" y2="374.494" gradientUnits="userSpaceOnUse">
<stop stop-color="#CBE1F2"/>
<stop offset="1" stop-color="#AED2ED"/>
</linearGradient>
<linearGradient id="paint30_linear_3120_1671" x1="213.5" y1="264.896" x2="258.107" y2="280.922" gradientUnits="userSpaceOnUse">
<stop stop-color="#CBE1F2"/>
<stop offset="1" stop-color="#AED2ED"/>
</linearGradient>
<linearGradient id="paint31_linear_3120_1671" x1="238.918" y1="267.075" x2="238.918" y2="201.902" gradientUnits="userSpaceOnUse">
<stop stop-color="#8BBDF2"/>
<stop offset="1" stop-color="#92C2E8"/>
</linearGradient>
<linearGradient id="paint32_linear_3120_1671" x1="236.985" y1="266.958" x2="236.985" y2="192.03" gradientUnits="userSpaceOnUse">
<stop stop-color="#DFEDF2"/>
<stop offset="1" stop-color="#E8F8FF"/>
</linearGradient>
<linearGradient id="paint33_linear_3120_1671" x1="218.485" y1="206.953" x2="252.744" y2="211.631" gradientUnits="userSpaceOnUse">
<stop stop-color="#0066B2"/>
<stop offset="1" stop-color="#00AEEF"/>
</linearGradient>
<linearGradient id="paint34_linear_3120_1671" x1="251.613" y1="233.81" x2="270.437" y2="236.383" gradientUnits="userSpaceOnUse">
<stop stop-color="#0066B2"/>
<stop offset="1" stop-color="#00AEEF"/>
</linearGradient>
<linearGradient id="paint35_linear_3120_1671" x1="222.562" y1="238.605" x2="260.399" y2="246.425" gradientUnits="userSpaceOnUse">
<stop stop-color="#0066B2"/>
<stop offset="1" stop-color="#00AEEF"/>
</linearGradient>
<linearGradient id="paint36_linear_3120_1671" x1="255.792" y1="203.334" x2="274.176" y2="207.13" gradientUnits="userSpaceOnUse">
<stop stop-color="#0066B2"/>
<stop offset="1" stop-color="#00AEEF"/>
</linearGradient>
<linearGradient id="paint37_linear_3120_1671" x1="257.221" y1="213.886" x2="262.836" y2="220.318" gradientUnits="userSpaceOnUse">
<stop stop-color="#0066B2"/>
<stop offset="1" stop-color="#00AEEF"/>
</linearGradient>
<linearGradient id="paint38_linear_3120_1671" x1="256.871" y1="215.991" x2="262.55" y2="222.432" gradientUnits="userSpaceOnUse">
<stop stop-color="#0066B2"/>
<stop offset="1" stop-color="#00AEEF"/>
</linearGradient>
<linearGradient id="paint39_linear_3120_1671" x1="256.559" y1="218.107" x2="262.297" y2="224.545" gradientUnits="userSpaceOnUse">
<stop stop-color="#0066B2"/>
<stop offset="1" stop-color="#00AEEF"/>
</linearGradient>
<linearGradient id="paint40_linear_3120_1671" x1="262.082" y1="220.223" x2="267.018" y2="222.999" gradientUnits="userSpaceOnUse">
<stop stop-color="#0066B2"/>
<stop offset="1" stop-color="#00AEEF"/>
</linearGradient>
<linearGradient id="paint41_linear_3120_1671" x1="203.271" y1="244.656" x2="211.339" y2="253.738" gradientUnits="userSpaceOnUse">
<stop stop-color="#0066B2"/>
<stop offset="1" stop-color="#00AEEF"/>
</linearGradient>
<linearGradient id="paint42_linear_3120_1671" x1="202.865" y1="247.636" x2="210.869" y2="256.69" gradientUnits="userSpaceOnUse">
<stop stop-color="#0066B2"/>
<stop offset="1" stop-color="#00AEEF"/>
</linearGradient>
<linearGradient id="paint43_linear_3120_1671" x1="202.353" y1="250.607" x2="210.357" y2="259.681" gradientUnits="userSpaceOnUse">
<stop stop-color="#0066B2"/>
<stop offset="1" stop-color="#00AEEF"/>
</linearGradient>
<linearGradient id="paint44_linear_3120_1671" x1="210.123" y1="253.577" x2="217.062" y2="257.481" gradientUnits="userSpaceOnUse">
<stop stop-color="#0066B2"/>
<stop offset="1" stop-color="#00AEEF"/>
</linearGradient>
<linearGradient id="paint45_linear_3120_1671" x1="207.038" y1="202.966" x2="212.564" y2="209.159" gradientUnits="userSpaceOnUse">
<stop stop-color="#0066B2"/>
<stop offset="1" stop-color="#00AEEF"/>
</linearGradient>
<linearGradient id="paint46_linear_3120_1671" x1="206.728" y1="204.995" x2="212.251" y2="211.188" gradientUnits="userSpaceOnUse">
<stop stop-color="#0066B2"/>
<stop offset="1" stop-color="#00AEEF"/>
</linearGradient>
<linearGradient id="paint47_linear_3120_1671" x1="212.041" y1="207.036" x2="216.765" y2="209.716" gradientUnits="userSpaceOnUse">
<stop stop-color="#0066B2"/>
<stop offset="1" stop-color="#00AEEF"/>
</linearGradient>
<linearGradient id="paint48_linear_3120_1671" x1="197.635" y1="380.616" x2="208.853" y2="380.616" gradientUnits="userSpaceOnUse">
<stop stop-color="#F4CFB3"/>
<stop offset="1" stop-color="#F2BB9B"/>
</linearGradient>
<linearGradient id="paint49_linear_3120_1671" x1="143.445" y1="377.41" x2="156.224" y2="377.41" gradientUnits="userSpaceOnUse">
<stop stop-color="#F4CFB3"/>
<stop offset="1" stop-color="#F2BB9B"/>
</linearGradient>
<linearGradient id="paint50_linear_3120_1671" x1="200.414" y1="172.072" x2="200.681" y2="193.216" gradientUnits="userSpaceOnUse">
<stop stop-color="#F4CFB3"/>
<stop offset="1" stop-color="#F2BB9B"/>
</linearGradient>
<linearGradient id="paint51_linear_3120_1671" x1="165.989" y1="231.551" x2="178.244" y2="231.551" gradientUnits="userSpaceOnUse">
<stop stop-color="#F4CFB3"/>
<stop offset="1" stop-color="#F2BB9B"/>
</linearGradient>
<linearGradient id="paint52_linear_3120_1671" x1="242.659" y1="212.244" x2="242.456" y2="214.606" gradientUnits="userSpaceOnUse">
<stop stop-color="#F4CFB3"/>
<stop offset="1" stop-color="#F2B091"/>
</linearGradient>
<linearGradient id="paint53_linear_3120_1671" x1="201.417" y1="227.811" x2="250.201" y2="227.811" gradientUnits="userSpaceOnUse">
<stop stop-color="#F4CFB3"/>
<stop offset="1" stop-color="#F2BB9B"/>
</linearGradient>
<linearGradient id="paint54_linear_3120_1671" x1="202.721" y1="172.061" x2="202.999" y2="193.259" gradientUnits="userSpaceOnUse">
<stop stop-color="#F4CFB3"/>
<stop offset="1" stop-color="#F2BB9B"/>
</linearGradient>
<linearGradient id="paint55_linear_3120_1671" x1="184.418" y1="302.654" x2="187.56" y2="302.654" gradientUnits="userSpaceOnUse">
<stop stop-color="#283770"/>
<stop offset="1" stop-color="#141A5A"/>
</linearGradient>
<linearGradient id="paint56_linear_3120_1671" x1="83.6566" y1="381.161" x2="73.3037" y2="381.161" gradientUnits="userSpaceOnUse">
<stop stop-color="#F4CFB3"/>
<stop offset="1" stop-color="#F2BB9B"/>
</linearGradient>
<linearGradient id="paint57_linear_3120_1671" x1="51.0856" y1="381.476" x2="40.1557" y2="380.493" gradientUnits="userSpaceOnUse">
<stop stop-color="#F4CFB3"/>
<stop offset="1" stop-color="#F2BB9B"/>
</linearGradient>
<linearGradient id="paint58_linear_3120_1671" x1="118.276" y1="182.361" x2="112.234" y2="234.187" gradientUnits="userSpaceOnUse">
<stop stop-color="#F4CFB3"/>
<stop offset="1" stop-color="#F2BB9B"/>
</linearGradient>
<linearGradient id="paint59_linear_3120_1671" x1="87.802" y1="166.004" x2="78.0687" y2="193.75" gradientUnits="userSpaceOnUse">
<stop stop-color="#F4CFB3"/>
<stop offset="1" stop-color="#F2BB9B"/>
</linearGradient>
<linearGradient id="paint60_linear_3120_1671" x1="84.608" y1="186.25" x2="76.894" y2="186.25" gradientUnits="userSpaceOnUse">
<stop stop-color="#F4CFB3"/>
<stop offset="1" stop-color="#F2BB9B"/>
</linearGradient>
<linearGradient id="paint61_linear_3120_1671" x1="83.4052" y1="164.82" x2="77.6524" y2="193.642" gradientUnits="userSpaceOnUse">
<stop stop-color="#F4CFB3"/>
<stop offset="1" stop-color="#F2BB9B"/>
</linearGradient>
<linearGradient id="paint62_linear_3120_1671" x1="79.1751" y1="163.973" x2="73.4237" y2="192.805" gradientUnits="userSpaceOnUse">
<stop stop-color="#F4CFB3"/>
<stop offset="1" stop-color="#F2BB9B"/>
</linearGradient>
<linearGradient id="paint63_linear_3120_1671" x1="-3.71819" y1="213.334" x2="106.734" y2="247.534" gradientUnits="userSpaceOnUse">
<stop stop-color="#F4CFB3"/>
<stop offset="1" stop-color="#F2BB9B"/>
</linearGradient>
<linearGradient id="paint64_linear_3120_1671" x1="126.864" y1="185.609" x2="124.524" y2="238.496" gradientUnits="userSpaceOnUse">
<stop stop-color="#F4CFB3"/>
<stop offset="1" stop-color="#F2BB9B"/>
</linearGradient>
<linearGradient id="paint65_linear_3120_1671" x1="340.418" y1="168.899" x2="217.967" y2="115.062" gradientUnits="userSpaceOnUse">
<stop stop-color="#CBE1F2"/>
<stop offset="1" stop-color="#AED2ED"/>
</linearGradient>
<linearGradient id="paint66_linear_3120_1671" x1="344.179" y1="155.576" x2="224.357" y2="102.903" gradientUnits="userSpaceOnUse">
<stop stop-color="#CBE1F2"/>
<stop offset="1" stop-color="#AED2ED"/>
</linearGradient>
<linearGradient id="paint67_linear_3120_1671" x1="341.262" y1="161.837" x2="221.664" y2="109.26" gradientUnits="userSpaceOnUse">
<stop stop-color="#CBE1F2"/>
<stop offset="1" stop-color="#AED2ED"/>
</linearGradient>
<linearGradient id="paint68_linear_3120_1671" x1="344.585" y1="154.518" x2="224.912" y2="101.91" gradientUnits="userSpaceOnUse">
<stop stop-color="#CBE1F2"/>
<stop offset="1" stop-color="#AED2ED"/>
</linearGradient>
<linearGradient id="paint69_linear_3120_1671" x1="340.707" y1="163.236" x2="221.034" y2="110.628" gradientUnits="userSpaceOnUse">
<stop stop-color="#CBE1F2"/>
<stop offset="1" stop-color="#AED2ED"/>
</linearGradient>
<linearGradient id="paint70_linear_3120_1671" x1="452.796" y1="73.503" x2="526.996" y2="81.7154" gradientUnits="userSpaceOnUse">
<stop stop-color="#0066B2"/>
<stop offset="1" stop-color="#00AEEF"/>
</linearGradient>
<linearGradient id="paint71_linear_3120_1671" x1="420.26" y1="172.343" x2="493.988" y2="179.687" gradientUnits="userSpaceOnUse">
<stop stop-color="#0066B2"/>
<stop offset="1" stop-color="#00AEEF"/>
</linearGradient>
<linearGradient id="paint72_linear_3120_1671" x1="431.991" y1="174.876" x2="495.556" y2="182.461" gradientUnits="userSpaceOnUse">
<stop stop-color="#0066B2"/>
<stop offset="1" stop-color="#00AEEF"/>
</linearGradient>
<linearGradient id="paint73_linear_3120_1671" x1="86.6807" y1="83.9252" x2="405.355" y2="185.938" gradientUnits="userSpaceOnUse">
<stop stop-color="#0066B2"/>
<stop offset="1" stop-color="#00AEEF"/>
</linearGradient>
</defs>
</svg>
